<svg id="svg" version="1.1" xmlns="http://www.w3.org/2000/svg" xmlns:xlink="http://www.w3.org/1999/xlink" width="400" height="400" viewBox="0, 0, 400,400"><g id="svgg"><path id="path0" d="M0.000 200.000 L 0.000 400.000 200.000 400.000 L 400.000 400.000 400.000 200.000 L 400.000 0.000 200.000 0.000 L 0.000 0.000 0.000 200.000 M331.800 55.622 C 333.120 55.852,335.354 56.214,336.765 56.427 C 338.176 56.641,339.907 57.172,340.612 57.608 C 341.317 58.043,342.256 58.400,342.698 58.400 C 343.140 58.400,343.712 58.653,343.969 58.963 C 344.226 59.273,345.059 59.821,345.818 60.182 C 346.578 60.543,347.200 61.009,347.200 61.219 C 347.200 61.428,347.418 61.600,347.684 61.600 C 348.276 61.600,352.310 65.927,352.627 66.900 C 352.752 67.285,353.000 67.600,353.178 67.600 C 353.357 67.600,353.728 68.185,354.004 68.900 C 354.279 69.615,354.826 70.920,355.219 71.800 C 356.165 73.921,356.657 79.008,355.993 79.809 C 355.269 80.681,44.755 80.710,44.032 79.838 C 43.450 79.138,44.101 73.296,44.941 71.676 C 45.248 71.084,45.799 69.970,46.166 69.200 C 47.565 66.264,47.955 65.747,50.771 63.092 C 51.525 62.382,52.428 61.530,52.777 61.200 C 53.126 60.870,53.859 60.369,54.405 60.088 C 54.952 59.806,55.940 59.287,56.600 58.934 C 59.965 57.134,61.012 56.747,63.498 56.384 C 64.984 56.168,67.010 55.835,68.000 55.645 C 70.701 55.127,328.827 55.105,331.800 55.622 M374.563 98.841 C 377.003 99.304,379.270 99.913,379.600 100.194 C 379.930 100.475,380.650 100.841,381.200 101.008 C 381.750 101.174,382.629 101.645,383.154 102.055 C 383.679 102.465,384.302 102.800,384.540 102.800 C 384.777 102.800,385.338 103.159,385.786 103.597 C 386.234 104.036,387.473 105.238,388.540 106.269 C 390.183 107.857,391.298 109.267,392.879 111.760 C 393.180 112.233,394.130 114.102,394.731 115.400 C 395.088 116.171,395.615 118.032,396.429 121.400 C 397.064 124.026,396.733 324.368,396.092 325.489 C 395.812 325.978,395.406 327.316,395.188 328.461 C 394.971 329.607,394.546 330.827,394.244 331.172 C 393.942 331.517,393.558 332.250,393.391 332.800 C 392.194 336.745,381.753 345.591,378.286 345.598 C 377.893 345.599,377.091 345.915,376.504 346.300 C 375.500 346.958,372.209 347.000,321.818 347.000 L 268.200 347.000 266.800 346.000 C 263.062 343.330,260.694 341.223,258.404 338.530 C 257.644 337.636,255.603 333.552,255.602 332.921 C 255.601 332.658,255.150 331.596,254.600 330.562 C 254.050 329.527,253.600 328.370,253.600 327.989 C 253.600 327.609,253.330 327.074,253.000 326.800 C 252.670 326.526,252.400 325.991,252.400 325.611 C 252.400 325.230,251.950 324.073,251.400 323.038 C 250.850 322.004,250.394 320.942,250.387 320.679 C 250.381 320.415,249.932 319.300,249.391 318.200 C 248.850 317.100,248.406 315.979,248.404 315.710 C 248.402 315.440,248.041 314.630,247.601 313.910 C 247.162 313.189,246.802 312.327,246.801 311.994 C 246.801 311.661,246.465 310.761,246.056 309.994 C 245.647 309.227,245.183 308.150,245.026 307.600 C 244.760 306.671,244.258 305.509,242.351 301.400 C 241.943 300.520,241.495 299.219,241.356 298.509 C 241.217 297.799,240.860 297.016,240.562 296.769 C 240.265 296.522,239.898 295.664,239.748 294.863 C 239.598 294.062,239.053 292.613,238.537 291.644 C 238.022 290.674,237.600 289.558,237.600 289.164 C 237.600 288.770,237.434 288.344,237.231 288.219 C 237.027 288.093,236.551 287.048,236.173 285.895 C 235.794 284.743,235.241 283.445,234.942 283.011 C 234.644 282.577,234.394 281.857,234.387 281.411 C 234.381 280.965,233.932 279.700,233.391 278.600 C 232.850 277.500,232.406 276.413,232.404 276.185 C 232.402 275.956,232.056 275.094,231.635 274.270 C 231.215 273.445,230.748 271.877,230.598 270.785 C 230.448 269.693,230.183 268.800,230.010 268.800 C 229.837 268.800,229.497 268.015,229.256 267.056 C 229.014 266.097,228.554 265.094,228.234 264.828 C 227.914 264.562,227.536 263.818,227.394 263.175 C 227.253 262.531,226.908 261.869,226.627 261.702 C 226.346 261.536,225.885 260.950,225.602 260.400 C 224.326 257.922,216.850 251.529,214.554 250.953 C 213.994 250.812,213.441 250.450,213.325 250.149 C 213.209 249.847,212.819 249.596,212.457 249.592 C 212.096 249.587,210.540 249.138,209.000 248.593 C 203.280 246.571,190.052 247.553,186.800 250.242 C 186.470 250.514,185.718 250.858,185.129 251.005 C 184.541 251.152,183.748 251.616,183.367 252.036 C 182.987 252.456,182.451 252.800,182.175 252.800 C 181.476 252.800,175.353 258.944,174.599 260.402 C 174.258 261.061,173.818 261.600,173.621 261.600 C 173.423 261.600,173.059 262.216,172.811 262.968 C 172.562 263.720,172.098 264.552,171.780 264.817 C 171.461 265.082,171.200 265.598,171.200 265.964 C 171.200 266.331,170.848 267.322,170.417 268.167 C 169.986 269.012,169.515 270.535,169.370 271.552 C 169.224 272.568,168.767 273.961,168.353 274.647 C 167.939 275.333,167.600 276.179,167.600 276.526 C 167.600 276.873,167.150 278.004,166.600 279.038 C 166.050 280.073,165.600 281.320,165.600 281.811 C 165.600 282.301,165.350 282.910,165.044 283.163 C 164.739 283.417,164.275 284.474,164.014 285.512 C 163.753 286.550,163.306 287.670,163.021 288.000 C 162.735 288.330,162.381 289.269,162.235 290.087 C 162.088 290.905,161.711 291.832,161.395 292.148 C 161.080 292.463,160.653 293.472,160.447 294.389 C 160.241 295.307,159.786 296.374,159.436 296.760 C 159.086 297.147,158.800 297.827,158.800 298.272 C 158.800 298.717,158.350 299.927,157.800 300.962 C 157.250 301.996,156.799 303.148,156.797 303.521 C 156.796 303.895,156.437 304.740,156.000 305.400 C 155.563 306.060,155.202 306.870,155.199 307.200 C 155.196 307.530,154.750 308.700,154.209 309.800 C 153.668 310.900,153.219 311.983,153.213 312.206 C 153.206 312.429,152.864 313.239,152.453 314.006 C 152.043 314.773,151.581 315.973,151.428 316.672 C 151.274 317.372,150.904 318.148,150.606 318.395 C 150.307 318.643,149.942 319.559,149.795 320.431 C 149.647 321.303,149.288 322.255,148.995 322.548 C 148.703 322.840,148.252 323.872,147.994 324.840 C 147.737 325.808,147.292 326.870,147.007 327.200 C 146.722 327.530,146.367 328.373,146.219 329.072 C 146.070 329.772,145.695 330.555,145.385 330.813 C 145.075 331.070,144.705 331.900,144.563 332.657 C 144.107 335.085,141.918 338.524,139.020 341.363 C 135.543 344.769,135.039 345.200,134.528 345.200 C 134.305 345.200,133.712 345.556,133.210 345.992 C 131.753 347.255,132.299 347.244,76.600 347.119 C 26.856 347.008,23.312 346.955,22.039 346.300 C 21.290 345.915,20.460 345.600,20.195 345.600 C 19.613 345.600,15.869 343.630,13.860 342.267 C 10.940 340.285,5.200 333.715,5.200 332.354 C 5.200 332.139,4.750 331.118,4.200 330.085 C 3.650 329.052,3.198 327.665,3.195 327.003 C 3.193 326.341,2.925 324.810,2.600 323.600 C 1.855 320.823,1.682 124.844,2.423 122.397 C 2.656 121.629,3.020 119.839,3.233 118.421 C 3.445 117.002,3.862 115.562,4.159 115.221 C 4.456 114.879,4.916 113.925,5.180 113.100 C 5.445 112.275,5.806 111.600,5.982 111.600 C 6.159 111.600,6.524 111.067,6.794 110.414 C 7.356 109.058,13.425 102.800,14.179 102.800 C 14.453 102.800,15.098 102.435,15.613 101.989 C 16.127 101.543,17.009 101.069,17.574 100.935 C 18.138 100.802,18.870 100.463,19.200 100.183 C 21.795 97.981,11.834 98.099,198.963 98.047 L 370.126 98.000 374.563 98.841 M105.400 180.816 C 104.520 180.990,102.522 181.333,100.960 181.579 C 99.398 181.824,97.425 182.379,96.576 182.812 C 95.726 183.246,94.641 183.600,94.164 183.600 C 93.688 183.600,93.098 183.840,92.855 184.134 C 92.611 184.428,91.689 184.907,90.806 185.198 C 89.923 185.490,89.200 185.857,89.200 186.015 C 89.200 186.174,88.615 186.539,87.900 186.827 C 84.078 188.369,73.200 199.508,73.200 201.879 C 73.200 202.098,72.858 202.586,72.440 202.964 C 72.021 203.343,71.567 204.252,71.429 204.986 C 71.291 205.719,70.926 206.529,70.617 206.786 C 70.308 207.042,69.858 208.173,69.616 209.299 C 69.375 210.424,69.021 211.538,68.830 211.773 C 67.285 213.676,67.231 232.671,68.765 234.569 C 68.956 234.806,69.323 236.021,69.579 237.269 C 69.835 238.517,70.299 239.750,70.611 240.009 C 70.923 240.268,71.291 241.081,71.429 241.814 C 71.567 242.548,72.021 243.457,72.440 243.836 C 72.858 244.214,73.203 244.721,73.206 244.962 C 73.227 246.426,78.641 252.820,82.707 256.182 C 86.267 259.127,86.825 259.507,89.483 260.802 C 90.409 261.254,91.266 261.784,91.388 261.981 C 91.510 262.177,92.192 262.460,92.905 262.608 C 93.617 262.756,94.746 263.191,95.413 263.574 C 96.079 263.957,97.429 264.394,98.413 264.546 C 99.396 264.698,101.100 265.132,102.200 265.511 C 105.048 266.492,114.952 266.492,117.800 265.511 C 118.900 265.132,120.610 264.707,121.600 264.565 C 122.590 264.423,123.995 263.968,124.723 263.553 C 125.450 263.139,126.287 262.800,126.582 262.800 C 126.877 262.800,128.082 262.292,129.259 261.671 C 131.262 260.615,132.553 259.805,136.000 257.442 C 139.346 255.148,147.600 245.519,147.600 243.910 C 147.600 243.699,147.960 243.069,148.400 242.509 C 148.840 241.950,149.200 241.079,149.200 240.575 C 149.200 240.070,149.469 239.388,149.798 239.060 C 150.126 238.731,150.598 237.503,150.846 236.331 C 151.094 235.159,151.582 233.660,151.929 233.000 C 152.888 231.181,152.857 215.556,151.892 213.742 C 151.524 213.050,151.105 211.700,150.960 210.742 C 150.816 209.784,150.361 208.439,149.949 207.753 C 149.537 207.067,149.200 206.247,149.200 205.930 C 149.200 205.614,148.750 204.745,148.200 204.000 C 147.650 203.255,147.200 202.393,147.200 202.086 C 147.200 201.778,146.831 201.048,146.380 200.463 C 142.658 195.636,141.540 194.312,139.721 192.580 C 138.578 191.491,137.228 190.279,136.721 189.886 C 133.474 187.370,132.633 186.800,132.165 186.800 C 131.876 186.800,131.496 186.555,131.320 186.257 C 131.144 185.958,130.339 185.498,129.532 185.236 C 128.725 184.974,127.848 184.498,127.583 184.180 C 127.318 183.861,126.719 183.596,126.251 183.591 C 125.783 183.586,124.627 183.231,123.682 182.803 C 122.737 182.374,121.027 181.907,119.882 181.765 C 118.737 181.623,116.720 181.260,115.400 180.959 C 112.823 180.371,108.000 180.303,105.400 180.816 M285.200 180.835 C 284.430 181.029,282.470 181.384,280.844 181.623 C 279.219 181.862,277.241 182.405,276.450 182.829 C 275.659 183.253,274.712 183.600,274.347 183.600 C 273.397 183.600,269.645 185.601,265.413 188.364 C 262.410 190.325,256.400 196.204,256.400 197.181 C 256.400 197.396,256.040 197.765,255.600 198.000 C 255.160 198.235,254.800 198.692,254.800 199.014 C 254.800 199.336,254.483 199.917,254.097 200.303 C 253.710 200.690,252.884 202.085,252.261 203.403 C 251.638 204.722,250.787 206.520,250.369 207.400 C 249.951 208.280,249.491 209.630,249.347 210.400 C 249.203 211.170,248.798 212.340,248.446 213.000 C 247.466 214.837,247.260 230.413,248.186 232.629 C 248.546 233.489,249.016 235.005,249.232 235.997 C 249.448 236.988,250.005 238.610,250.470 239.600 C 252.184 243.246,253.770 246.214,254.278 246.729 C 254.565 247.019,254.800 247.424,254.800 247.629 C 254.800 249.305,267.637 260.800,269.509 260.800 C 269.694 260.800,270.455 261.250,271.200 261.800 C 271.945 262.350,272.904 262.800,273.330 262.800 C 273.757 262.800,274.667 263.141,275.353 263.558 C 276.039 263.975,277.590 264.446,278.800 264.605 C 280.010 264.764,281.540 265.173,282.200 265.515 C 284.110 266.503,293.087 266.687,296.400 265.806 C 297.830 265.426,300.090 264.898,301.422 264.635 C 302.754 264.371,304.279 263.850,304.811 263.477 C 305.343 263.105,306.080 262.800,306.448 262.800 C 307.664 262.800,312.474 260.074,315.596 257.614 C 316.584 256.837,317.631 256.020,317.924 255.800 C 318.216 255.580,318.835 254.995,319.300 254.500 C 319.764 254.005,320.382 253.600,320.672 253.600 C 320.962 253.600,321.200 253.399,321.200 253.154 C 321.200 252.909,322.055 251.693,323.100 250.452 C 325.031 248.160,325.365 247.685,326.800 245.200 C 328.069 243.001,328.208 242.733,329.279 240.400 C 332.808 232.709,333.819 217.973,331.246 211.709 C 330.814 210.659,330.350 209.125,330.213 208.300 C 330.076 207.475,329.791 206.800,329.580 206.800 C 329.369 206.800,328.980 205.990,328.716 205.000 C 328.451 204.010,328.090 203.200,327.914 203.200 C 327.738 203.200,327.305 202.480,326.953 201.600 C 326.601 200.720,326.148 200.000,325.947 200.000 C 325.745 200.000,325.420 199.578,325.224 199.063 C 324.824 198.012,322.375 195.197,319.459 192.437 C 318.391 191.427,317.110 190.195,316.613 189.700 C 316.115 189.205,315.526 188.800,315.303 188.800 C 315.080 188.800,314.665 188.520,314.381 188.177 C 314.096 187.834,313.309 187.297,312.632 186.982 C 311.954 186.668,310.260 185.778,308.866 185.005 C 307.473 184.232,306.070 183.600,305.750 183.600 C 305.430 183.600,304.490 183.254,303.662 182.832 C 302.834 182.409,300.906 181.869,299.378 181.631 C 297.850 181.393,295.700 181.030,294.600 180.823 C 292.118 180.357,287.068 180.364,285.200 180.835 M205.425 270.898 C 206.071 271.225,207.257 271.612,208.060 271.757 C 208.863 271.902,209.740 272.286,210.009 272.611 C 210.278 272.935,210.721 273.200,210.994 273.200 C 211.824 273.200,215.583 276.337,218.219 279.230 C 218.535 279.577,218.992 280.432,219.236 281.130 C 219.479 281.829,219.833 282.400,220.023 282.400 C 220.213 282.400,220.586 283.165,220.853 284.100 C 221.120 285.035,221.543 286.070,221.793 286.400 C 222.720 287.622,224.400 291.302,224.413 292.137 C 224.419 292.612,224.868 293.900,225.409 295.000 C 225.950 296.100,226.394 297.383,226.396 297.851 C 226.398 298.319,226.658 298.916,226.972 299.177 C 227.287 299.438,227.739 300.558,227.976 301.664 C 228.214 302.771,228.676 304.059,229.004 304.527 C 229.332 304.995,229.602 305.653,229.604 305.989 C 229.606 306.325,230.050 307.500,230.591 308.600 C 231.132 309.700,231.581 310.932,231.587 311.338 C 231.594 311.744,231.965 312.589,232.411 313.215 C 232.936 313.953,233.253 315.101,233.311 316.477 L 233.400 318.600 200.000 318.600 L 166.600 318.600 166.704 316.600 C 166.764 315.435,167.114 314.183,167.541 313.600 C 167.944 313.050,168.408 311.880,168.571 311.000 C 168.734 310.120,169.106 309.130,169.397 308.800 C 169.688 308.470,170.137 307.406,170.395 306.436 C 170.654 305.466,171.103 304.296,171.393 303.836 C 171.684 303.376,172.047 302.370,172.200 301.600 C 172.353 300.830,172.707 299.837,172.987 299.394 C 173.266 298.951,173.628 297.961,173.791 297.194 C 173.953 296.427,174.427 295.239,174.843 294.553 C 175.259 293.867,175.600 292.959,175.600 292.535 C 175.600 292.111,176.305 290.333,177.167 288.582 C 178.028 286.832,179.025 284.770,179.382 284.000 C 180.974 280.567,181.804 279.368,184.357 276.816 C 189.879 271.293,200.384 268.342,205.425 270.898 " stroke="none" fill="#f9fbfa" fill-rule="evenodd"></path><path id="path1" d="M63.400 57.492 C 62.740 57.588,61.930 57.902,61.600 58.190 C 61.270 58.478,60.235 58.838,59.300 58.992 C 58.365 59.145,57.465 59.505,57.300 59.792 C 57.135 60.079,56.325 60.594,55.500 60.937 C 54.675 61.279,54.000 61.736,54.000 61.953 C 54.000 62.169,53.649 62.457,53.220 62.594 C 52.320 62.879,50.000 64.953,50.000 65.472 C 50.000 65.664,49.640 66.130,49.200 66.507 C 48.760 66.884,48.400 67.436,48.400 67.734 C 48.400 68.032,48.044 68.599,47.608 68.993 C 47.172 69.387,46.702 70.360,46.563 71.155 C 46.424 71.950,46.088 72.960,45.815 73.400 C 45.132 74.505,44.704 77.051,44.985 78.334 L 45.220 79.400 200.110 79.299 L 355.000 79.197 355.000 76.640 C 355.000 74.766,354.813 73.877,354.300 73.310 C 353.915 72.885,353.600 71.992,353.600 71.327 C 353.600 70.591,353.209 69.694,352.600 69.038 C 352.050 68.444,351.600 67.758,351.600 67.513 C 351.600 67.030,351.271 66.635,348.839 64.200 C 346.943 62.301,345.023 60.800,344.491 60.800 C 344.280 60.800,343.679 60.463,343.154 60.052 C 342.629 59.641,341.570 59.173,340.800 59.013 C 340.030 58.853,338.950 58.424,338.400 58.061 C 337.450 57.433,67.629 56.875,63.400 57.492 M24.717 100.018 C 23.242 100.190,21.627 100.616,21.128 100.965 C 20.630 101.314,19.847 101.600,19.389 101.600 C 18.930 101.600,17.945 102.050,17.200 102.600 C 16.455 103.150,15.626 103.600,15.359 103.600 C 14.705 103.600,7.600 110.677,7.600 111.328 C 7.600 111.612,7.150 112.455,6.600 113.200 C 6.050 113.945,5.600 114.930,5.600 115.389 C 5.600 115.847,5.321 116.620,4.980 117.107 C 3.648 119.009,3.581 124.655,3.691 225.400 L 3.800 325.800 4.657 327.600 C 5.129 328.590,5.626 329.890,5.762 330.490 C 6.342 333.042,12.249 340.317,14.259 340.955 C 14.718 341.101,15.416 341.576,15.809 342.010 C 16.202 342.445,16.783 342.800,17.100 342.800 C 17.417 342.800,18.193 343.168,18.824 343.617 C 19.455 344.067,20.923 344.542,22.086 344.673 C 23.249 344.804,24.686 345.157,25.280 345.456 C 26.919 346.281,130.882 346.265,131.567 345.439 C 131.823 345.131,132.512 344.758,133.099 344.611 C 133.685 344.464,134.407 343.996,134.705 343.572 C 135.002 343.147,135.423 342.800,135.640 342.800 C 136.179 342.800,140.400 338.643,140.400 338.112 C 140.400 337.877,140.636 337.595,140.924 337.484 C 141.213 337.374,141.682 336.500,141.968 335.542 C 142.254 334.584,142.662 333.691,142.874 333.558 C 143.086 333.425,143.436 332.529,143.652 331.567 C 143.868 330.605,144.395 329.492,144.823 329.093 C 145.250 328.695,145.600 327.864,145.600 327.246 C 145.600 326.629,145.937 325.819,146.350 325.446 C 146.762 325.073,147.194 324.060,147.310 323.195 C 147.426 322.330,147.794 321.349,148.128 321.015 C 148.462 320.681,148.859 319.821,149.010 319.104 C 149.162 318.387,149.612 317.260,150.010 316.600 C 150.407 315.940,150.857 314.731,151.008 313.914 C 151.160 313.097,151.536 312.219,151.845 311.962 C 152.154 311.706,152.517 310.808,152.652 309.966 C 152.786 309.125,153.235 308.131,153.648 307.756 C 154.062 307.382,154.400 306.663,154.400 306.159 C 154.400 305.655,154.850 304.396,155.400 303.362 C 155.950 302.327,156.401 301.193,156.403 300.840 C 156.404 300.488,156.763 299.660,157.200 299.000 C 157.637 298.340,157.997 297.440,158.000 297.000 C 158.003 296.560,158.363 295.660,158.800 295.000 C 159.237 294.340,159.602 293.530,159.610 293.200 C 159.618 292.870,160.068 291.700,160.609 290.600 C 161.150 289.500,161.594 288.217,161.596 287.749 C 161.598 287.281,161.848 286.692,162.150 286.441 C 162.453 286.190,162.930 285.133,163.211 284.092 C 163.492 283.052,163.949 281.930,164.227 281.600 C 164.505 281.270,164.857 280.331,165.008 279.513 C 165.160 278.695,165.625 277.632,166.042 277.151 C 166.459 276.671,166.800 275.699,166.800 274.993 C 166.800 274.286,167.133 273.279,167.539 272.754 C 167.946 272.229,168.388 270.848,168.522 269.685 C 168.662 268.476,169.116 267.124,169.583 266.531 C 170.032 265.960,170.400 265.215,170.400 264.875 C 170.400 264.186,173.693 259.062,174.974 257.759 C 175.428 257.297,176.360 256.307,177.045 255.559 C 177.729 254.812,178.809 253.794,179.445 253.298 C 180.080 252.802,181.166 251.947,181.858 251.398 C 182.550 250.849,183.397 250.400,183.742 250.400 C 184.087 250.400,184.691 250.056,185.084 249.635 C 185.478 249.215,186.475 248.745,187.300 248.591 C 188.125 248.437,188.800 248.165,188.800 247.987 C 188.800 245.911,208.790 245.657,211.110 247.702 C 211.489 248.037,212.366 248.431,213.059 248.578 C 213.751 248.725,214.634 249.195,215.021 249.623 C 215.407 250.050,216.043 250.400,216.433 250.400 C 216.824 250.400,217.381 250.625,217.671 250.900 C 217.962 251.175,218.830 251.872,219.600 252.448 C 222.596 254.691,228.000 260.690,228.000 261.774 C 228.000 262.050,228.339 262.583,228.754 262.958 C 229.169 263.334,229.621 264.205,229.759 264.894 C 229.897 265.584,230.291 266.458,230.634 266.838 C 230.978 267.218,231.395 268.532,231.562 269.758 C 231.728 270.984,232.141 272.305,232.479 272.694 C 232.817 273.082,233.210 274.168,233.352 275.106 C 233.495 276.044,233.969 277.169,234.406 277.606 C 234.843 278.043,235.200 278.912,235.200 279.539 C 235.200 280.165,235.560 281.093,236.000 281.600 C 236.440 282.107,236.800 282.903,236.800 283.367 C 236.800 283.832,237.134 284.839,237.541 285.606 C 237.949 286.373,238.404 287.657,238.552 288.459 C 238.700 289.262,239.148 290.342,239.548 290.859 C 239.949 291.377,240.391 292.395,240.533 293.123 C 240.674 293.851,241.040 294.697,241.346 295.004 C 241.653 295.310,242.031 296.245,242.186 297.080 C 242.341 297.916,242.691 298.870,242.965 299.200 C 243.238 299.530,243.689 300.594,243.966 301.564 C 244.243 302.534,244.724 303.582,245.035 303.892 C 245.346 304.203,245.600 304.960,245.600 305.575 C 245.600 306.189,245.954 307.142,246.386 307.691 C 246.818 308.240,247.341 309.447,247.549 310.373 C 247.758 311.300,248.194 312.359,248.519 312.729 C 248.845 313.098,249.241 314.030,249.400 314.800 C 249.559 315.570,249.922 316.470,250.207 316.800 C 250.492 317.130,250.927 318.157,251.174 319.083 C 251.420 320.009,251.792 320.871,252.000 321.000 C 252.208 321.129,252.580 321.991,252.826 322.917 C 253.073 323.843,253.508 324.870,253.793 325.200 C 254.078 325.530,254.444 326.423,254.606 327.184 C 254.768 327.946,255.221 329.026,255.613 329.584 C 256.005 330.143,256.440 331.275,256.581 332.100 C 256.721 332.925,257.001 333.600,257.202 333.600 C 257.403 333.600,257.791 334.345,258.064 335.256 C 258.571 336.947,259.327 338.029,261.330 339.928 C 261.952 340.518,262.852 341.373,263.330 341.830 C 263.809 342.286,264.515 342.776,264.900 342.917 C 265.285 343.059,265.600 343.341,265.600 343.544 C 265.600 343.747,266.320 344.201,267.200 344.553 C 268.080 344.905,268.800 345.375,268.800 345.597 C 268.800 346.182,371.553 346.152,373.074 345.566 C 373.693 345.328,375.262 344.960,376.560 344.748 C 377.859 344.536,379.368 344.011,379.914 343.582 C 380.461 343.152,381.245 342.800,381.658 342.800 C 382.070 342.800,382.716 342.440,383.093 342.000 C 383.470 341.560,384.001 341.200,384.274 341.200 C 384.547 341.200,385.869 340.075,387.211 338.700 C 390.546 335.286,390.659 335.150,391.228 333.900 C 391.503 333.295,391.880 332.800,392.064 332.800 C 392.249 332.800,392.400 332.592,392.400 332.339 C 392.400 332.085,392.829 330.960,393.354 329.839 C 395.243 325.802,395.267 324.230,395.093 219.200 C 394.929 120.296,394.881 117.224,393.478 115.821 C 393.141 115.484,392.742 114.648,392.592 113.963 C 392.442 113.279,392.022 112.382,391.659 111.971 C 391.297 111.560,390.010 109.966,388.800 108.429 C 387.590 106.893,386.406 105.627,386.170 105.618 C 385.933 105.608,385.317 105.150,384.800 104.600 C 384.283 104.050,383.646 103.600,383.384 103.600 C 383.122 103.600,382.464 103.251,381.922 102.825 C 381.380 102.398,380.411 101.920,379.768 101.762 C 379.126 101.603,378.234 101.237,377.786 100.947 C 377.339 100.658,375.719 100.240,374.186 100.019 C 370.844 99.536,28.861 99.535,24.717 100.018 M118.600 180.071 C 119.260 180.416,120.798 180.819,122.019 180.968 C 123.239 181.116,124.769 181.588,125.419 182.016 C 126.068 182.444,126.965 182.796,127.411 182.797 C 127.857 182.799,128.667 183.113,129.211 183.497 C 130.416 184.345,132.162 185.346,133.900 186.184 C 134.615 186.529,135.200 186.992,135.200 187.214 C 135.200 187.436,135.695 187.831,136.300 188.093 C 137.642 188.675,146.000 197.017,146.000 197.776 C 146.000 197.946,146.450 198.619,147.000 199.273 C 147.550 199.927,148.000 200.690,148.000 200.969 C 148.000 201.249,148.360 201.893,148.800 202.400 C 149.240 202.907,149.600 203.631,149.600 204.007 C 149.600 204.384,149.954 205.142,150.386 205.691 C 150.818 206.241,151.349 207.480,151.566 208.445 C 151.783 209.410,152.227 210.740,152.553 211.400 C 153.128 212.566,154.214 221.178,154.141 224.000 C 154.044 227.732,153.077 234.369,152.421 235.800 C 152.018 236.680,151.576 238.018,151.439 238.774 C 151.302 239.529,150.945 240.429,150.646 240.774 C 150.346 241.118,149.884 242.075,149.620 242.900 C 149.355 243.725,148.991 244.400,148.812 244.400 C 148.633 244.400,148.373 244.855,148.233 245.410 C 148.094 245.966,147.669 246.732,147.290 247.113 C 146.910 247.495,146.420 248.194,146.200 248.668 C 145.796 249.539,141.219 254.817,139.866 255.973 C 137.482 258.011,136.964 258.399,136.634 258.400 C 136.432 258.400,135.982 258.669,135.634 258.998 C 134.344 260.214,132.474 261.600,132.120 261.600 C 131.919 261.600,131.145 262.050,130.400 262.600 C 129.655 263.150,128.642 263.600,128.151 263.600 C 127.659 263.600,126.983 263.875,126.647 264.210 C 126.311 264.546,124.994 265.012,123.718 265.245 C 122.443 265.479,121.066 265.969,120.658 266.335 C 119.537 267.340,100.461 267.339,99.342 266.334 C 98.934 265.967,97.880 265.542,97.000 265.389 C 96.120 265.236,94.590 264.746,93.600 264.299 C 89.428 262.418,86.800 261.062,86.800 260.789 C 86.800 260.628,86.260 260.273,85.600 260.000 C 84.940 259.727,84.400 259.384,84.400 259.238 C 84.400 259.092,83.842 258.643,83.161 258.240 C 80.408 256.614,72.400 247.605,72.400 246.135 C 72.400 245.877,72.214 245.605,71.986 245.529 C 71.758 245.453,71.303 244.610,70.974 243.655 C 70.645 242.700,70.111 241.654,69.788 241.331 C 69.465 241.007,69.200 240.330,69.200 239.825 C 69.200 239.321,68.866 238.479,68.458 237.954 C 68.025 237.397,67.525 235.702,67.257 233.879 C 67.005 232.162,66.509 230.198,66.156 229.514 C 65.346 227.949,65.503 218.002,66.362 216.443 C 66.652 215.917,67.048 214.222,67.242 212.677 C 67.436 211.133,67.852 209.584,68.166 209.235 C 68.480 208.886,68.872 208.060,69.035 207.400 C 69.199 206.740,69.753 205.408,70.267 204.440 C 70.780 203.473,71.200 202.438,71.200 202.140 C 71.200 201.843,71.389 201.600,71.620 201.600 C 71.852 201.600,72.291 201.001,72.597 200.268 C 72.903 199.536,73.434 198.704,73.777 198.419 C 74.120 198.135,74.400 197.759,74.400 197.585 C 74.400 196.201,82.179 188.845,86.054 186.564 C 86.461 186.325,87.111 185.851,87.497 185.512 C 87.884 185.172,88.636 184.761,89.169 184.598 C 89.702 184.435,90.478 183.986,90.893 183.600 C 91.307 183.213,92.288 182.793,93.073 182.666 C 93.857 182.538,94.799 182.162,95.166 181.830 C 95.533 181.498,96.906 181.107,98.217 180.960 C 99.528 180.814,100.870 180.462,101.200 180.178 C 102.524 179.040,116.462 178.955,118.600 180.071 M298.686 180.072 C 299.079 180.414,300.467 180.813,301.772 180.959 C 303.077 181.105,304.718 181.579,305.419 182.012 C 306.121 182.445,307.078 182.800,307.547 182.800 C 308.016 182.800,308.760 183.160,309.200 183.600 C 309.640 184.040,310.235 184.400,310.522 184.400 C 310.810 184.400,311.655 184.850,312.400 185.400 C 313.145 185.950,313.996 186.400,314.290 186.400 C 314.584 186.400,314.920 186.646,315.035 186.947 C 315.151 187.248,316.118 188.060,317.185 188.752 C 319.355 190.158,324.909 195.877,325.826 197.649 C 326.153 198.282,326.584 198.800,326.783 198.800 C 326.983 198.800,327.269 199.205,327.419 199.700 C 327.569 200.195,328.012 200.960,328.403 201.400 C 328.794 201.840,329.235 202.773,329.383 203.472 C 329.530 204.172,329.898 204.950,330.200 205.200 C 330.502 205.450,330.873 206.221,331.025 206.912 C 331.176 207.603,331.621 208.805,332.012 209.584 C 332.404 210.363,332.845 212.041,332.993 213.313 C 333.140 214.585,333.516 216.115,333.828 216.713 C 334.622 218.235,334.621 227.802,333.826 229.892 C 333.511 230.721,333.039 232.740,332.777 234.378 C 332.516 236.016,332.054 237.604,331.751 237.906 C 331.448 238.209,331.200 238.894,331.200 239.429 C 331.200 239.963,330.845 240.755,330.410 241.190 C 329.976 241.624,329.504 242.479,329.363 243.090 C 329.221 243.700,328.813 244.650,328.457 245.200 C 328.101 245.750,327.628 246.489,327.405 246.843 C 325.690 249.566,324.477 251.053,321.552 254.017 C 319.708 255.885,317.481 257.950,316.602 258.607 C 314.100 260.474,312.392 261.600,312.060 261.600 C 311.892 261.600,311.145 262.050,310.400 262.600 C 309.655 263.150,308.696 263.600,308.270 263.600 C 307.843 263.600,306.933 263.937,306.247 264.349 C 305.561 264.761,304.195 265.220,303.210 265.368 C 302.226 265.517,301.082 265.945,300.668 266.319 C 299.525 267.354,281.093 267.346,279.511 266.309 C 278.931 265.929,277.679 265.506,276.728 265.369 C 275.778 265.232,274.512 264.778,273.916 264.360 C 273.320 263.942,272.403 263.600,271.878 263.600 C 271.353 263.600,270.607 263.250,270.221 262.823 C 269.834 262.395,268.984 261.928,268.331 261.785 C 267.679 261.642,267.055 261.288,266.944 260.999 C 266.833 260.710,266.215 260.255,265.571 259.988 C 264.927 259.721,264.400 259.255,264.400 258.951 C 264.400 258.648,264.019 258.400,263.552 258.400 C 262.704 258.400,254.000 249.868,254.000 249.036 C 254.000 248.682,253.199 247.358,251.188 244.384 C 250.810 243.826,250.374 242.791,250.218 242.084 C 250.063 241.378,249.788 240.800,249.607 240.800 C 249.205 240.800,248.400 238.582,248.400 237.472 C 248.400 237.027,248.127 236.361,247.793 235.993 C 245.839 233.833,245.797 212.657,247.742 210.446 C 248.055 210.091,248.444 209.170,248.608 208.400 C 248.771 207.630,249.241 206.571,249.652 206.046 C 250.063 205.521,250.400 204.694,250.400 204.208 C 250.400 203.722,250.744 203.013,251.164 202.633 C 251.584 202.252,252.049 201.461,252.196 200.874 C 252.343 200.287,252.720 199.535,253.033 199.203 C 253.346 198.871,254.439 197.520,255.463 196.200 C 257.602 193.441,261.224 189.600,261.686 189.600 C 261.859 189.600,262.315 189.325,262.700 188.990 C 265.128 186.874,265.769 186.400,266.200 186.400 C 266.466 186.400,267.169 185.950,267.762 185.400 C 268.356 184.850,269.127 184.400,269.477 184.400 C 269.826 184.400,270.317 184.120,270.567 183.777 C 270.817 183.435,271.800 182.980,272.751 182.767 C 273.701 182.553,274.731 182.126,275.039 181.818 C 275.347 181.510,276.635 181.132,277.900 180.979 C 279.165 180.825,280.560 180.509,281.000 180.276 C 283.337 179.037,297.312 178.876,298.686 180.072 M197.200 271.976 C 196.650 272.165,195.418 272.338,194.463 272.360 C 193.381 272.385,192.343 272.702,191.709 273.200 C 191.150 273.640,190.472 274.000,190.204 274.000 C 188.570 274.000,181.600 280.898,181.600 282.514 C 181.600 282.838,181.326 283.329,180.992 283.607 C 180.657 283.885,180.189 284.886,179.950 285.831 C 179.712 286.777,179.176 287.860,178.759 288.237 C 178.341 288.615,178.000 289.257,178.000 289.663 C 178.000 290.070,177.640 291.075,177.200 291.896 C 176.760 292.716,176.400 293.772,176.400 294.240 C 176.400 294.709,176.063 295.521,175.651 296.046 C 175.239 296.571,174.766 297.810,174.600 298.800 C 174.434 299.790,173.961 301.029,173.549 301.554 C 173.137 302.079,172.800 302.981,172.800 303.560 C 172.800 304.138,172.454 305.257,172.032 306.045 C 171.609 306.834,171.062 308.226,170.816 309.139 C 170.570 310.053,170.204 310.800,170.003 310.800 C 169.801 310.800,169.521 311.475,169.381 312.300 C 169.240 313.125,168.771 314.303,168.337 314.918 C 167.904 315.533,167.606 316.433,167.675 316.918 L 167.800 317.800 200.200 317.800 L 232.600 317.800 232.463 316.800 C 232.387 316.250,232.075 315.518,231.768 315.174 C 231.461 314.829,231.094 313.929,230.952 313.174 C 230.811 312.418,230.378 311.260,229.991 310.600 C 229.603 309.940,229.165 308.827,229.017 308.128 C 228.870 307.428,228.504 306.652,228.206 306.405 C 227.907 306.157,227.539 305.199,227.389 304.277 C 227.239 303.355,226.774 302.039,226.358 301.353 C 225.941 300.667,225.600 299.566,225.600 298.907 C 225.600 298.247,225.238 297.248,224.796 296.686 C 224.355 296.125,223.883 295.065,223.748 294.332 C 223.613 293.600,223.269 292.624,222.984 292.164 C 222.699 291.704,222.261 290.570,222.012 289.643 C 221.762 288.717,221.298 287.859,220.979 287.737 C 220.661 287.614,220.397 287.129,220.394 286.657 C 220.391 286.186,220.126 285.350,219.805 284.800 C 219.484 284.250,218.944 283.214,218.604 282.497 C 217.185 279.501,211.439 274.000,209.730 274.000 C 209.470 274.000,208.946 273.689,208.566 273.309 C 207.583 272.326,199.080 271.329,197.200 271.976 " stroke="none" fill="#23ac7c" fill-rule="evenodd"></path><path id="path2" d="M68.000 55.645 C 67.010 55.835,64.984 56.168,63.498 56.384 C 61.012 56.747,59.965 57.134,56.600 58.934 C 55.940 59.287,54.952 59.806,54.405 60.088 C 53.859 60.369,53.126 60.870,52.777 61.200 C 52.428 61.530,51.525 62.382,50.771 63.092 C 47.955 65.747,47.565 66.264,46.166 69.200 C 45.799 69.970,45.248 71.084,44.941 71.676 C 44.101 73.296,43.450 79.138,44.032 79.838 C 44.755 80.710,355.269 80.681,355.993 79.809 C 356.657 79.008,356.165 73.921,355.219 71.800 C 354.826 70.920,354.279 69.615,354.004 68.900 C 353.728 68.185,353.357 67.600,353.178 67.600 C 353.000 67.600,352.752 67.285,352.627 66.900 C 352.310 65.927,348.276 61.600,347.684 61.600 C 347.418 61.600,347.200 61.428,347.200 61.219 C 347.200 61.009,346.578 60.543,345.818 60.182 C 345.059 59.821,344.226 59.273,343.969 58.963 C 343.712 58.653,343.140 58.400,342.698 58.400 C 342.256 58.400,341.317 58.043,340.612 57.608 C 339.907 57.172,338.176 56.641,336.765 56.427 C 335.354 56.214,333.120 55.852,331.800 55.622 C 328.827 55.105,70.701 55.127,68.000 55.645 M339.800 57.745 C 341.340 58.375,342.870 59.048,343.200 59.241 C 343.530 59.434,344.449 59.944,345.243 60.375 C 348.265 62.015,353.417 68.021,354.187 70.800 C 354.339 71.350,354.728 72.385,355.050 73.099 C 355.430 73.940,355.595 75.350,355.518 77.099 L 355.400 79.800 200.800 79.909 C 115.770 79.969,45.795 79.921,45.300 79.801 C 43.357 79.334,44.446 73.150,47.392 67.913 C 48.713 65.566,53.876 60.400,54.902 60.400 C 55.108 60.400,55.765 60.052,56.363 59.627 C 56.960 59.201,57.978 58.723,58.624 58.563 C 59.271 58.404,60.211 58.008,60.712 57.683 C 62.478 56.539,67.345 56.500,201.600 56.550 L 337.000 56.600 339.800 57.745 M23.800 98.884 C 21.600 99.319,19.530 99.903,19.200 100.183 C 18.870 100.463,18.138 100.802,17.574 100.935 C 17.009 101.069,16.127 101.543,15.613 101.989 C 15.098 102.435,14.453 102.800,14.179 102.800 C 13.425 102.800,7.356 109.058,6.794 110.414 C 6.524 111.067,6.159 111.600,5.982 111.600 C 5.806 111.600,5.445 112.275,5.180 113.100 C 4.916 113.925,4.456 114.879,4.159 115.221 C 3.862 115.562,3.445 117.002,3.233 118.421 C 3.020 119.839,2.656 121.629,2.423 122.397 C 1.682 124.844,1.855 320.823,2.600 323.600 C 2.925 324.810,3.193 326.341,3.195 327.003 C 3.198 327.665,3.650 329.052,4.200 330.085 C 4.750 331.118,5.200 332.139,5.200 332.354 C 5.200 333.715,10.940 340.285,13.860 342.267 C 15.869 343.630,19.613 345.600,20.195 345.600 C 20.460 345.600,21.290 345.915,22.039 346.300 C 23.312 346.955,26.856 347.008,76.600 347.119 C 132.299 347.244,131.753 347.255,133.210 345.992 C 133.712 345.556,134.305 345.200,134.528 345.200 C 135.039 345.200,135.543 344.769,139.020 341.363 C 141.918 338.524,144.107 335.085,144.563 332.657 C 144.705 331.900,145.075 331.070,145.385 330.813 C 145.695 330.555,146.070 329.772,146.219 329.072 C 146.367 328.373,146.722 327.530,147.007 327.200 C 147.292 326.870,147.737 325.808,147.994 324.840 C 148.252 323.872,148.703 322.840,148.995 322.548 C 149.288 322.255,149.647 321.303,149.795 320.431 C 149.942 319.559,150.307 318.643,150.606 318.395 C 150.904 318.148,151.274 317.372,151.428 316.672 C 151.581 315.973,152.043 314.773,152.453 314.006 C 152.864 313.239,153.206 312.429,153.213 312.206 C 153.219 311.983,153.668 310.900,154.209 309.800 C 154.750 308.700,155.196 307.530,155.199 307.200 C 155.202 306.870,155.563 306.060,156.000 305.400 C 156.437 304.740,156.796 303.895,156.797 303.521 C 156.799 303.148,157.250 301.996,157.800 300.962 C 158.350 299.927,158.800 298.717,158.800 298.272 C 158.800 297.827,159.086 297.147,159.436 296.760 C 159.786 296.374,160.241 295.307,160.447 294.389 C 160.653 293.472,161.080 292.463,161.395 292.148 C 161.711 291.832,162.088 290.905,162.235 290.087 C 162.381 289.269,162.735 288.330,163.021 288.000 C 163.306 287.670,163.753 286.550,164.014 285.512 C 164.275 284.474,164.739 283.417,165.044 283.163 C 165.350 282.910,165.600 282.301,165.600 281.811 C 165.600 281.320,166.050 280.073,166.600 279.038 C 167.150 278.004,167.600 276.873,167.600 276.526 C 167.600 276.179,167.939 275.333,168.353 274.647 C 168.767 273.961,169.224 272.568,169.370 271.552 C 169.515 270.535,169.986 269.012,170.417 268.167 C 170.848 267.322,171.200 266.331,171.200 265.964 C 171.200 265.598,171.461 265.082,171.780 264.817 C 172.098 264.552,172.562 263.720,172.811 262.968 C 173.059 262.216,173.423 261.600,173.621 261.600 C 173.818 261.600,174.258 261.061,174.599 260.402 C 175.353 258.944,181.476 252.800,182.175 252.800 C 182.451 252.800,182.987 252.456,183.367 252.036 C 183.748 251.616,184.541 251.152,185.129 251.005 C 185.718 250.858,186.470 250.514,186.800 250.242 C 190.052 247.553,203.280 246.571,209.000 248.593 C 210.540 249.138,212.096 249.587,212.457 249.592 C 212.819 249.596,213.209 249.847,213.325 250.149 C 213.441 250.450,213.994 250.812,214.554 250.953 C 216.850 251.529,224.326 257.922,225.602 260.400 C 225.885 260.950,226.346 261.536,226.627 261.702 C 226.908 261.869,227.253 262.531,227.394 263.175 C 227.536 263.818,227.914 264.562,228.234 264.828 C 228.554 265.094,229.014 266.097,229.256 267.056 C 229.497 268.015,229.837 268.800,230.010 268.800 C 230.183 268.800,230.448 269.693,230.598 270.785 C 230.748 271.877,231.215 273.445,231.635 274.270 C 232.056 275.094,232.402 275.956,232.404 276.185 C 232.406 276.413,232.850 277.500,233.391 278.600 C 233.932 279.700,234.381 280.965,234.387 281.411 C 234.394 281.857,234.644 282.577,234.942 283.011 C 235.241 283.445,235.794 284.743,236.173 285.895 C 236.551 287.048,237.027 288.093,237.231 288.219 C 237.434 288.344,237.600 288.770,237.600 289.164 C 237.600 289.558,238.022 290.674,238.537 291.644 C 239.053 292.613,239.598 294.062,239.748 294.863 C 239.898 295.664,240.265 296.522,240.562 296.769 C 240.860 297.016,241.217 297.799,241.356 298.509 C 241.495 299.219,241.943 300.520,242.351 301.400 C 244.258 305.509,244.760 306.671,245.026 307.600 C 245.183 308.150,245.647 309.227,246.056 309.994 C 246.465 310.761,246.801 311.661,246.801 311.994 C 246.802 312.327,247.162 313.189,247.601 313.910 C 248.041 314.630,248.402 315.440,248.404 315.710 C 248.406 315.979,248.850 317.100,249.391 318.200 C 249.932 319.300,250.381 320.415,250.387 320.679 C 250.394 320.942,250.850 322.004,251.400 323.038 C 251.950 324.073,252.400 325.230,252.400 325.611 C 252.400 325.991,252.670 326.526,253.000 326.800 C 253.330 327.074,253.600 327.609,253.600 327.989 C 253.600 328.370,254.050 329.527,254.600 330.562 C 255.150 331.596,255.601 332.658,255.602 332.921 C 255.603 333.552,257.644 337.636,258.404 338.530 C 260.694 341.223,263.062 343.330,266.800 346.000 L 268.200 347.000 321.818 347.000 C 372.209 347.000,375.500 346.958,376.504 346.300 C 377.091 345.915,377.893 345.599,378.286 345.598 C 381.753 345.591,392.194 336.745,393.391 332.800 C 393.558 332.250,393.942 331.517,394.244 331.172 C 394.546 330.827,394.971 329.607,395.188 328.461 C 395.406 327.316,395.812 325.978,396.092 325.489 C 396.733 324.368,397.064 124.026,396.429 121.400 C 395.615 118.032,395.088 116.171,394.731 115.400 C 394.130 114.102,393.180 112.233,392.879 111.760 C 391.298 109.267,390.183 107.857,388.540 106.269 C 387.473 105.238,386.234 104.036,385.786 103.597 C 385.338 103.159,384.777 102.800,384.540 102.800 C 384.302 102.800,383.679 102.465,383.154 102.055 C 382.629 101.645,381.750 101.174,381.200 101.008 C 380.650 100.841,379.930 100.475,379.600 100.194 C 379.270 99.913,377.003 99.304,374.563 98.841 L 370.126 98.000 198.963 98.047 C 30.268 98.094,27.742 98.106,23.800 98.884 M374.000 99.379 C 377.183 99.918,381.269 101.315,382.471 102.277 C 382.762 102.510,383.565 102.987,384.255 103.337 C 388.889 105.689,393.736 112.855,395.243 119.580 C 396.443 124.935,396.423 319.874,395.222 325.656 C 393.939 331.836,389.182 339.246,384.893 341.744 C 380.012 344.588,376.942 345.769,372.800 346.398 C 371.590 346.582,347.827 346.748,319.993 346.766 L 269.386 346.800 267.914 345.800 C 267.105 345.250,266.333 344.800,266.200 344.800 C 263.944 344.800,258.256 337.878,256.009 332.400 C 255.062 330.090,253.438 326.220,252.401 323.800 C 251.363 321.380,250.003 318.140,249.379 316.600 C 248.755 315.060,248.009 313.445,247.722 313.011 C 247.435 312.577,247.200 311.894,247.200 311.493 C 247.200 311.092,246.750 309.918,246.200 308.885 C 245.650 307.852,245.199 306.735,245.197 306.403 C 245.196 306.071,244.837 305.260,244.400 304.600 C 243.963 303.940,243.604 303.163,243.603 302.874 C 243.601 302.585,243.150 301.365,242.600 300.163 C 242.050 298.960,241.600 297.752,241.600 297.477 C 241.600 297.203,241.356 296.623,241.057 296.189 C 240.758 295.755,240.281 294.680,239.996 293.800 C 239.712 292.920,239.251 291.840,238.972 291.400 C 238.693 290.960,238.253 289.795,237.993 288.812 C 237.734 287.828,237.269 286.663,236.961 286.223 C 236.652 285.782,236.400 285.112,236.400 284.732 C 236.400 284.353,235.950 283.196,235.400 282.162 C 234.850 281.127,234.400 280.037,234.400 279.739 C 234.400 279.441,234.040 278.525,233.600 277.704 C 233.160 276.884,232.800 275.984,232.800 275.704 C 232.800 275.425,232.440 274.525,232.000 273.704 C 231.560 272.884,231.198 271.669,231.196 271.006 C 231.194 270.343,230.750 268.900,230.209 267.800 C 229.668 266.700,229.219 265.568,229.213 265.284 C 229.206 265.000,228.868 264.280,228.463 263.684 C 228.057 263.088,227.204 261.790,226.567 260.800 C 223.523 256.069,214.410 248.812,211.494 248.798 C 211.222 248.796,210.514 248.541,209.919 248.231 C 206.568 246.483,194.099 246.341,190.600 248.012 C 190.160 248.223,189.080 248.649,188.200 248.960 C 183.626 250.576,177.047 255.655,174.200 259.767 C 173.021 261.470,171.702 263.663,171.174 264.800 C 169.516 268.367,169.211 269.192,168.959 270.803 C 168.805 271.792,168.346 273.227,167.939 273.994 C 167.533 274.761,167.199 275.661,167.199 275.994 C 167.198 276.327,166.867 277.141,166.464 277.802 C 166.061 278.464,165.631 279.454,165.509 280.002 C 165.276 281.046,163.849 284.686,163.000 286.400 C 162.728 286.950,162.197 288.343,161.822 289.495 C 161.446 290.648,160.973 291.693,160.769 291.819 C 160.566 291.944,160.398 292.352,160.396 292.724 C 160.394 293.096,159.950 294.300,159.409 295.400 C 158.868 296.500,158.419 297.670,158.411 298.000 C 158.403 298.330,158.038 299.189,157.599 299.910 C 157.159 300.630,156.798 301.440,156.796 301.710 C 156.794 301.979,156.350 303.100,155.809 304.200 C 155.268 305.300,154.819 306.421,154.813 306.691 C 154.806 306.961,154.325 308.221,153.744 309.491 C 151.434 314.541,151.200 315.108,151.199 315.644 C 151.198 315.950,150.838 316.789,150.399 317.510 C 149.959 318.230,149.598 319.040,149.596 319.310 C 149.594 319.579,149.150 320.700,148.609 321.800 C 148.068 322.900,147.619 324.042,147.613 324.338 C 147.606 324.634,147.347 325.354,147.037 325.938 C 146.147 327.616,144.400 331.454,144.400 331.731 C 144.400 333.232,141.169 338.476,138.834 340.765 C 135.892 343.649,135.909 343.634,132.949 345.516 L 130.899 346.820 77.949 346.691 C 16.530 346.541,23.497 347.083,13.776 341.693 C 12.453 340.959,7.605 335.626,6.874 334.100 C 6.532 333.385,6.119 332.800,5.958 332.800 C 5.796 332.800,5.537 332.222,5.382 331.516 C 5.226 330.810,4.770 329.595,4.368 328.816 C 3.918 327.945,3.466 325.706,3.195 323.000 C 2.589 316.949,2.872 121.800,3.491 119.200 C 4.642 114.367,7.950 108.916,11.800 105.509 C 13.902 103.650,15.036 102.801,15.420 102.800 C 15.651 102.800,16.042 102.598,16.288 102.352 C 17.231 101.409,21.531 99.880,24.600 99.397 C 29.700 98.593,369.256 98.575,374.000 99.379 M102.632 180.594 C 101.769 180.901,100.329 181.269,99.432 181.410 C 96.733 181.835,93.031 183.365,87.293 186.424 C 80.160 190.228,73.017 199.201,68.846 209.600 C 65.580 217.742,66.614 236.605,70.578 241.200 C 70.863 241.530,71.210 242.070,71.350 242.400 C 71.490 242.730,71.500 242.460,71.371 241.800 C 71.243 241.140,70.888 240.323,70.583 239.984 C 70.277 239.645,69.820 238.385,69.567 237.184 C 69.314 235.983,68.951 234.806,68.761 234.569 C 67.230 232.656,67.287 213.673,68.830 211.773 C 69.021 211.538,69.375 210.424,69.616 209.299 C 69.858 208.173,70.308 207.042,70.617 206.786 C 70.926 206.529,71.291 205.719,71.429 204.986 C 71.567 204.252,72.021 203.343,72.440 202.964 C 72.858 202.586,73.200 202.098,73.200 201.879 C 73.200 199.508,84.078 188.369,87.900 186.827 C 88.615 186.539,89.200 186.174,89.200 186.015 C 89.200 185.857,89.923 185.490,90.806 185.198 C 91.689 184.907,92.611 184.428,92.855 184.134 C 93.098 183.840,93.688 183.600,94.164 183.600 C 94.641 183.600,95.726 183.246,96.576 182.812 C 97.425 182.379,99.308 181.839,100.760 181.612 C 102.212 181.385,104.300 181.030,105.400 180.823 C 108.323 180.274,112.656 180.333,115.400 180.959 C 116.720 181.260,118.737 181.623,119.882 181.765 C 121.027 181.907,122.737 182.374,123.682 182.803 C 124.627 183.231,125.783 183.586,126.251 183.591 C 126.719 183.596,127.318 183.861,127.583 184.180 C 127.848 184.498,128.725 184.974,129.532 185.236 C 130.339 185.498,131.144 185.958,131.320 186.257 C 131.496 186.555,131.876 186.800,132.165 186.800 C 132.633 186.800,133.474 187.370,136.721 189.886 C 137.228 190.279,138.578 191.491,139.721 192.580 C 141.540 194.312,142.658 195.636,146.380 200.463 C 146.831 201.048,147.200 201.778,147.200 202.086 C 147.200 202.393,147.650 203.255,148.200 204.000 C 148.750 204.745,149.200 205.614,149.200 205.930 C 149.200 206.247,149.537 207.067,149.949 207.753 C 150.361 208.439,150.816 209.784,150.960 210.742 C 151.105 211.700,151.524 213.050,151.892 213.742 C 152.857 215.556,152.888 231.181,151.929 233.000 C 151.582 233.660,151.094 235.159,150.846 236.331 C 150.598 237.503,150.126 238.731,149.798 239.060 C 149.469 239.388,149.200 240.070,149.200 240.575 C 149.200 241.079,148.840 241.950,148.400 242.509 C 147.960 243.069,147.600 243.699,147.600 243.910 C 147.600 245.520,139.338 255.157,136.000 257.441 C 132.444 259.873,131.254 260.620,129.259 261.672 C 128.082 262.292,126.871 262.800,126.569 262.800 C 126.267 262.800,125.430 263.159,124.710 263.599 C 123.989 264.038,123.033 264.398,122.584 264.399 C 122.135 264.399,120.695 264.693,119.384 265.051 C 118.073 265.409,116.370 265.838,115.600 266.005 C 114.223 266.303,114.231 266.309,116.085 266.354 C 117.133 266.380,118.872 266.045,120.000 265.600 C 121.116 265.160,122.428 264.794,122.915 264.787 C 123.402 264.781,124.700 264.332,125.800 263.791 C 126.900 263.250,128.104 262.806,128.476 262.804 C 128.848 262.802,129.253 262.639,129.374 262.441 C 129.496 262.244,130.362 261.685,131.298 261.198 C 132.234 260.711,133.090 260.197,133.200 260.056 C 133.310 259.915,133.688 259.620,134.040 259.400 C 138.389 256.682,145.600 249.666,145.600 248.152 C 145.600 247.902,145.885 247.462,146.233 247.173 C 146.875 246.640,147.860 244.937,148.994 242.400 C 149.339 241.630,149.814 240.658,150.051 240.240 C 154.054 233.177,154.233 215.699,150.388 207.400 C 149.980 206.520,149.370 205.170,149.031 204.400 C 148.693 203.630,148.192 202.640,147.918 202.200 C 147.644 201.760,146.973 200.680,146.426 199.800 C 140.586 190.395,130.161 183.296,118.596 180.848 C 113.766 179.825,105.173 179.689,102.632 180.594 M282.000 180.814 C 280.570 181.217,279.054 181.558,278.631 181.573 C 275.984 181.666,267.895 185.739,263.381 189.253 C 241.398 206.365,241.195 239.707,262.967 257.142 C 265.937 259.519,266.540 259.927,268.800 261.084 C 269.570 261.478,270.438 262.025,270.729 262.300 C 271.019 262.575,271.476 262.800,271.744 262.800 C 272.012 262.800,272.944 263.164,273.815 263.610 C 274.687 264.055,276.120 264.533,277.000 264.672 C 277.880 264.811,279.380 265.257,280.333 265.662 C 281.286 266.068,282.816 266.379,283.733 266.354 L 285.400 266.308 284.000 266.028 C 283.230 265.874,282.240 265.556,281.800 265.320 C 281.360 265.085,280.010 264.763,278.800 264.604 C 277.590 264.446,276.039 263.975,275.353 263.558 C 274.667 263.141,273.757 262.800,273.330 262.800 C 272.904 262.800,271.945 262.350,271.200 261.800 C 270.455 261.250,269.694 260.800,269.509 260.800 C 267.637 260.800,254.800 249.305,254.800 247.629 C 254.800 247.424,254.565 247.019,254.278 246.729 C 253.770 246.214,252.184 243.246,250.470 239.600 C 250.005 238.610,249.448 236.988,249.232 235.997 C 249.016 235.005,248.546 233.489,248.186 232.629 C 247.260 230.413,247.466 214.837,248.446 213.000 C 248.798 212.340,249.203 211.170,249.347 210.400 C 249.491 209.630,249.951 208.280,250.369 207.400 C 250.787 206.520,251.638 204.722,252.261 203.403 C 252.884 202.085,253.710 200.690,254.097 200.303 C 254.483 199.917,254.800 199.336,254.800 199.014 C 254.800 198.692,255.160 198.235,255.600 198.000 C 256.040 197.765,256.400 197.396,256.400 197.181 C 256.400 196.204,262.410 190.325,265.413 188.364 C 269.645 185.601,273.397 183.600,274.347 183.600 C 274.712 183.600,275.668 183.248,276.470 182.819 C 277.272 182.389,278.889 181.918,280.064 181.772 C 281.239 181.626,283.280 181.260,284.600 180.959 C 287.344 180.333,291.677 180.274,294.600 180.823 C 295.700 181.030,297.850 181.393,299.378 181.631 C 300.906 181.869,302.834 182.409,303.662 182.832 C 304.490 183.254,305.430 183.600,305.750 183.600 C 306.070 183.600,307.473 184.232,308.866 185.005 C 310.260 185.778,311.954 186.668,312.632 186.982 C 313.309 187.297,314.096 187.834,314.381 188.177 C 314.665 188.520,315.080 188.800,315.303 188.800 C 315.526 188.800,316.115 189.205,316.613 189.700 C 317.110 190.195,318.391 191.427,319.459 192.437 C 322.375 195.197,324.824 198.012,325.224 199.063 C 325.420 199.578,325.745 200.000,325.947 200.000 C 326.148 200.000,326.601 200.720,326.953 201.600 C 327.305 202.480,327.738 203.200,327.914 203.200 C 328.090 203.200,328.451 204.010,328.716 205.000 C 328.980 205.990,329.369 206.800,329.580 206.800 C 329.791 206.800,330.076 207.475,330.213 208.300 C 330.350 209.125,330.814 210.659,331.246 211.709 C 333.819 217.973,332.808 232.709,329.279 240.400 C 328.208 242.733,328.069 243.001,326.800 245.200 C 325.365 247.685,325.031 248.160,323.100 250.452 C 322.055 251.693,321.200 252.909,321.200 253.154 C 321.200 253.399,320.962 253.600,320.672 253.600 C 320.382 253.600,319.764 254.005,319.300 254.500 C 318.835 254.995,318.216 255.580,317.924 255.800 C 317.631 256.020,316.584 256.837,315.596 257.614 C 312.541 260.021,307.669 262.800,306.507 262.800 C 306.170 262.800,305.333 263.139,304.647 263.553 C 303.961 263.967,302.320 264.507,301.000 264.752 C 299.680 264.997,297.700 265.456,296.600 265.772 L 294.600 266.346 296.285 266.373 C 297.212 266.388,298.884 266.040,300.000 265.600 C 301.116 265.160,302.394 264.800,302.840 264.800 C 304.065 264.800,310.371 261.897,313.043 260.103 C 317.206 257.308,317.923 256.759,319.800 254.931 C 322.397 252.402,324.076 250.477,325.360 248.553 C 325.931 247.699,326.837 246.370,327.375 245.600 C 327.913 244.830,328.567 243.570,328.829 242.800 C 329.090 242.030,329.488 241.169,329.712 240.887 C 331.540 238.587,333.776 227.459,333.467 222.200 C 333.237 218.278,332.113 211.240,331.615 210.600 C 331.444 210.380,331.080 209.480,330.806 208.600 C 330.361 207.175,329.181 204.608,327.311 201.000 C 325.780 198.046,320.114 191.798,316.407 188.975 C 313.896 187.062,313.294 186.677,310.482 185.173 C 309.757 184.785,308.947 184.290,308.682 184.073 C 308.417 183.856,307.395 183.463,306.412 183.200 C 305.428 182.937,304.263 182.469,303.823 182.161 C 303.382 181.852,302.566 181.600,302.010 181.600 C 301.453 181.600,299.739 181.240,298.200 180.800 C 294.432 179.723,285.851 179.730,282.000 180.814 M71.609 243.438 C 71.614 243.637,71.970 244.250,72.400 244.800 C 72.830 245.350,73.186 245.949,73.191 246.130 C 73.205 246.630,76.760 251.249,78.827 253.452 C 81.556 256.361,85.785 259.596,88.800 261.079 C 89.570 261.458,90.470 261.967,90.800 262.210 C 91.426 262.670,95.104 264.063,99.669 265.569 C 101.810 266.276,103.510 266.478,108.269 266.595 L 114.200 266.740 109.000 266.411 C 106.140 266.230,103.050 265.806,102.133 265.470 C 101.217 265.134,99.609 264.730,98.561 264.573 C 97.513 264.416,96.103 263.970,95.427 263.582 C 94.752 263.195,93.617 262.756,92.905 262.608 C 92.192 262.460,91.510 262.177,91.388 261.981 C 91.266 261.784,90.409 261.254,89.483 260.802 C 86.825 259.507,86.267 259.127,82.707 256.182 C 78.641 252.820,73.227 246.426,73.206 244.962 C 73.203 244.721,72.840 244.198,72.400 243.800 C 71.960 243.402,71.604 243.239,71.609 243.438 M287.715 266.696 C 288.988 266.776,290.968 266.775,292.115 266.694 C 293.262 266.614,292.220 266.549,289.800 266.550 C 287.380 266.551,286.442 266.616,287.715 266.696 M196.400 270.378 C 191.481 271.559,187.469 273.703,184.357 276.816 C 181.804 279.368,180.974 280.567,179.382 284.000 C 179.025 284.770,178.028 286.832,177.167 288.582 C 176.305 290.333,175.600 292.111,175.600 292.535 C 175.600 292.959,175.259 293.867,174.843 294.553 C 174.427 295.239,173.953 296.427,173.791 297.194 C 173.628 297.961,173.266 298.951,172.987 299.394 C 172.707 299.837,172.353 300.830,172.200 301.600 C 172.047 302.370,171.684 303.376,171.393 303.836 C 171.103 304.296,170.654 305.466,170.395 306.436 C 170.137 307.406,169.688 308.470,169.397 308.800 C 169.106 309.130,168.734 310.120,168.571 311.000 C 168.408 311.880,167.944 313.050,167.541 313.600 C 167.114 314.183,166.764 315.435,166.704 316.600 L 166.600 318.600 200.000 318.600 L 233.400 318.600 233.311 316.477 C 233.253 315.101,232.936 313.953,232.411 313.215 C 231.965 312.589,231.594 311.744,231.587 311.338 C 231.581 310.932,231.132 309.700,230.591 308.600 C 230.050 307.500,229.606 306.325,229.604 305.989 C 229.602 305.653,229.332 304.995,229.004 304.527 C 228.676 304.059,228.214 302.771,227.976 301.664 C 227.739 300.558,227.287 299.438,226.972 299.177 C 226.658 298.916,226.398 298.319,226.396 297.851 C 226.394 297.383,225.950 296.100,225.409 295.000 C 224.868 293.900,224.419 292.612,224.413 292.137 C 224.400 291.302,222.720 287.622,221.793 286.400 C 221.543 286.070,221.120 285.035,220.853 284.100 C 220.586 283.165,220.213 282.400,220.023 282.400 C 219.833 282.400,219.479 281.829,219.236 281.130 C 218.992 280.432,218.535 279.577,218.219 279.230 C 215.583 276.337,211.824 273.200,210.994 273.200 C 210.721 273.200,210.278 272.935,210.009 272.611 C 209.740 272.286,208.863 271.902,208.060 271.757 C 207.257 271.612,206.071 271.225,205.425 270.898 C 204.062 270.207,198.457 269.884,196.400 270.378 M204.851 271.458 C 210.816 272.789,217.237 277.555,219.217 282.121 C 219.427 282.605,219.763 283.270,219.965 283.600 C 220.166 283.930,220.777 285.190,221.323 286.400 C 221.868 287.610,222.600 289.230,222.950 290.000 C 223.299 290.770,223.932 292.390,224.355 293.600 C 225.751 297.588,226.428 299.384,227.018 300.660 C 227.338 301.354,227.600 302.115,227.600 302.353 C 227.600 302.931,229.516 307.837,230.451 309.654 C 230.863 310.454,231.200 311.337,231.200 311.616 C 231.200 311.895,231.661 313.097,232.224 314.288 C 232.788 315.479,233.193 316.846,233.124 317.327 L 233.000 318.200 200.244 318.200 C 163.288 318.200,165.941 318.447,167.514 315.156 C 167.976 314.190,168.653 312.590,169.019 311.600 C 169.384 310.610,169.984 308.990,170.351 308.000 C 170.718 307.010,171.171 305.956,171.358 305.659 C 171.545 305.361,172.022 304.101,172.417 302.859 C 172.812 301.616,173.616 299.340,174.203 297.800 C 174.789 296.260,175.614 294.025,176.036 292.834 C 176.750 290.816,178.588 286.753,180.483 283.000 C 183.460 277.107,188.993 272.701,194.802 271.600 C 195.977 271.377,197.028 271.106,197.136 270.997 C 197.566 270.567,202.064 270.836,204.851 271.458 " stroke="none" fill="#94ceb4" fill-rule="evenodd"></path><path id="path3" d="M66.700 56.682 C 67.195 56.778,68.005 56.778,68.500 56.682 C 68.995 56.587,68.590 56.509,67.600 56.509 C 66.610 56.509,66.205 56.587,66.700 56.682 M331.905 56.683 C 332.402 56.779,333.122 56.775,333.505 56.675 C 333.887 56.575,333.480 56.496,332.600 56.501 C 331.720 56.505,331.407 56.587,331.905 56.683 M343.309 59.600 C 343.869 60.040,344.457 60.400,344.617 60.400 C 344.777 60.400,344.450 60.040,343.891 59.600 C 343.331 59.160,342.743 58.800,342.583 58.800 C 342.423 58.800,342.750 59.160,343.309 59.600 M48.723 65.900 C 48.018 66.721,47.490 67.600,47.701 67.600 C 47.783 67.600,48.249 67.060,48.737 66.400 C 49.701 65.096,49.692 64.772,48.723 65.900 M123.100 79.900 C 165.395 79.956,234.605 79.956,276.900 79.900 C 319.195 79.844,284.590 79.798,200.000 79.798 C 115.410 79.798,80.805 79.844,123.100 79.900 M113.500 99.100 C 160.855 99.156,238.345 99.156,285.700 99.100 C 333.055 99.044,294.310 98.998,199.600 98.998 C 104.890 98.998,66.145 99.044,113.500 99.100 M2.997 223.000 C 2.997 277.120,3.043 299.201,3.100 272.068 C 3.157 244.935,3.157 200.655,3.100 173.668 C 3.043 146.681,2.997 168.880,2.997 223.000 M107.700 179.896 C 108.965 179.975,111.035 179.975,112.300 179.896 C 113.565 179.816,112.530 179.751,110.000 179.751 C 107.470 179.751,106.435 179.816,107.700 179.896 M287.516 179.897 C 288.899 179.975,291.059 179.974,292.316 179.895 C 293.572 179.816,292.440 179.752,289.800 179.753 C 287.160 179.753,286.132 179.818,287.516 179.897 M275.600 182.200 C 275.050 182.514,274.780 182.772,275.000 182.772 C 275.220 182.772,275.850 182.514,276.400 182.200 C 276.950 181.886,277.220 181.628,277.000 181.628 C 276.780 181.628,276.150 181.886,275.600 182.200 M264.182 188.312 C 262.483 189.875,262.887 189.689,265.131 187.876 C 265.863 187.284,266.313 186.805,266.131 186.812 C 265.949 186.819,265.072 187.494,264.182 188.312 M79.453 192.472 L 76.600 195.343 79.600 192.587 C 81.250 191.071,82.675 189.779,82.767 189.715 C 82.858 189.652,82.792 189.600,82.619 189.600 C 82.447 189.600,81.022 190.892,79.453 192.472 M259.586 192.300 L 257.400 194.600 259.700 192.414 C 260.965 191.211,262.000 190.176,262.000 190.114 C 262.000 189.817,261.618 190.163,259.586 192.300 M323.168 195.500 C 324.351 196.875,325.400 198.000,325.497 198.000 C 325.762 198.000,322.534 194.206,321.720 193.559 C 321.332 193.252,321.984 194.125,323.168 195.500 M150.255 207.000 C 151.180 208.579,151.200 208.603,151.200 208.111 C 151.200 207.879,150.829 207.264,150.376 206.744 L 149.553 205.800 150.255 207.000 M246.893 218.400 C 246.893 219.170,246.975 219.485,247.076 219.100 C 247.176 218.715,247.176 218.085,247.076 217.700 C 246.975 217.315,246.893 217.630,246.893 218.400 M66.493 220.400 C 66.493 221.170,66.575 221.485,66.676 221.100 C 66.776 220.715,66.776 220.085,66.676 219.700 C 66.575 219.315,66.493 219.630,66.493 220.400 M153.337 223.400 C 153.339 225.160,153.409 225.830,153.493 224.889 C 153.578 223.949,153.577 222.509,153.491 221.689 C 153.405 220.870,153.336 221.640,153.337 223.400 M246.893 228.000 C 246.893 228.770,246.975 229.085,247.076 228.700 C 247.176 228.315,247.176 227.685,247.076 227.300 C 246.975 226.915,246.893 227.230,246.893 228.000 M74.735 249.000 C 74.974 249.440,75.826 250.520,76.630 251.400 L 78.091 253.000 76.577 251.000 C 74.728 248.557,74.163 247.944,74.735 249.000 M182.000 251.855 C 181.230 252.397,180.240 253.222,179.800 253.687 C 179.135 254.391,179.221 254.370,180.311 253.567 C 183.534 251.189,184.880 249.826,182.000 251.855 M259.400 254.400 C 260.483 255.500,261.460 256.400,261.570 256.400 C 261.680 256.400,260.883 255.500,259.800 254.400 C 258.717 253.300,257.740 252.400,257.630 252.400 C 257.520 252.400,258.317 253.300,259.400 254.400 M222.400 255.800 C 223.146 256.570,223.847 257.200,223.957 257.200 C 224.067 257.200,223.546 256.570,222.800 255.800 C 222.054 255.030,221.353 254.400,221.243 254.400 C 221.133 254.400,221.654 255.030,222.400 255.800 M315.322 258.629 L 314.200 259.658 315.500 258.754 C 316.215 258.257,316.800 257.793,316.800 257.725 C 316.800 257.409,316.358 257.680,315.322 258.629 M87.503 260.700 C 88.021 261.195,88.660 261.595,88.922 261.588 C 89.185 261.581,89.040 261.376,88.600 261.132 C 88.160 260.888,87.521 260.488,87.180 260.244 C 86.840 260.000,86.985 260.205,87.503 260.700 M267.503 260.700 C 268.021 261.195,268.660 261.595,268.922 261.588 C 269.185 261.581,269.040 261.376,268.600 261.132 C 268.160 260.888,267.521 260.488,267.180 260.244 C 266.840 260.000,266.985 260.205,267.503 260.700 M114.500 266.676 C 114.885 266.776,115.515 266.776,115.900 266.676 C 116.285 266.575,115.970 266.493,115.200 266.493 C 114.430 266.493,114.115 266.575,114.500 266.676 M294.705 266.683 C 295.202 266.779,295.922 266.775,296.305 266.675 C 296.687 266.575,296.280 266.496,295.400 266.501 C 294.520 266.505,294.207 266.587,294.705 266.683 M218.255 281.000 C 219.180 282.579,219.200 282.603,219.200 282.111 C 219.200 281.879,218.829 281.264,218.376 280.744 L 217.553 279.800 218.255 281.000 M243.604 303.000 C 243.605 303.220,243.963 303.940,244.400 304.600 C 245.436 306.164,245.437 305.608,244.401 303.910 C 243.962 303.189,243.604 302.780,243.604 303.000 M3.293 324.000 C 3.293 324.770,3.375 325.085,3.476 324.700 C 3.576 324.315,3.576 323.685,3.476 323.300 C 3.375 322.915,3.293 323.230,3.293 324.000 M387.186 339.500 L 385.000 341.800 387.300 339.614 C 389.437 337.582,389.783 337.200,389.486 337.200 C 389.424 337.200,388.389 338.235,387.186 339.500 M11.486 339.599 C 12.633 340.789,13.631 341.680,13.703 341.581 C 13.776 341.481,12.837 340.508,11.618 339.418 L 9.400 337.436 11.486 339.599 M259.600 339.325 C 259.600 339.394,260.185 339.979,260.900 340.625 L 262.200 341.800 261.025 340.500 C 259.930 339.288,259.600 339.016,259.600 339.325 M53.100 346.700 C 67.455 346.758,90.945 346.758,105.300 346.700 C 119.655 346.642,107.910 346.594,79.200 346.594 C 50.490 346.594,38.745 346.642,53.100 346.700 M294.731 346.700 C 308.883 346.758,331.923 346.758,345.931 346.700 C 359.939 346.642,348.360 346.594,320.200 346.594 C 292.040 346.594,280.579 346.642,294.731 346.700 " stroke="none" fill="#84ccb4" fill-rule="evenodd"></path><path id="path4" d="M66.000 56.797 C 63.886 56.971,61.890 57.402,60.722 57.938 C 59.689 58.412,58.599 58.800,58.300 58.800 C 58.000 58.800,57.145 59.250,56.400 59.800 C 55.655 60.350,54.844 60.800,54.599 60.800 C 53.914 60.800,49.476 65.181,48.115 67.200 C 44.515 72.544,43.153 81.048,46.087 79.869 C 46.422 79.735,46.369 79.652,45.932 79.632 C 44.640 79.571,44.562 75.426,45.815 73.400 C 46.088 72.960,46.424 71.950,46.563 71.155 C 46.702 70.360,47.172 69.387,47.608 68.993 C 48.044 68.599,48.400 68.032,48.400 67.734 C 48.400 67.436,48.760 66.884,49.200 66.507 C 49.640 66.130,50.000 65.664,50.000 65.472 C 50.000 64.953,52.320 62.879,53.220 62.594 C 53.649 62.457,54.000 62.169,54.000 61.953 C 54.000 61.736,54.675 61.279,55.500 60.937 C 56.325 60.594,57.135 60.079,57.300 59.792 C 57.465 59.505,58.365 59.145,59.300 58.992 C 60.235 58.838,61.334 58.418,61.742 58.056 C 62.891 57.040,336.862 57.044,338.400 58.061 C 338.950 58.424,340.030 58.853,340.800 59.013 C 341.570 59.173,342.629 59.641,343.154 60.052 C 343.679 60.463,344.280 60.800,344.491 60.800 C 345.023 60.800,346.943 62.301,348.839 64.200 C 351.271 66.635,351.600 67.030,351.600 67.513 C 351.600 67.758,352.050 68.444,352.600 69.038 C 353.947 70.492,353.859 70.036,352.344 67.720 C 350.861 65.453,346.260 60.935,345.048 60.556 C 344.582 60.409,343.771 59.955,343.246 59.545 C 342.721 59.135,342.037 58.800,341.724 58.800 C 341.412 58.800,340.323 58.420,339.304 57.956 C 338.142 57.427,336.028 56.986,333.626 56.771 C 329.091 56.365,70.949 56.391,66.000 56.797 M353.632 71.369 C 353.614 72.011,353.907 72.876,354.282 73.291 C 355.485 74.620,355.531 79.096,354.346 79.570 C 353.826 79.779,353.670 79.958,354.000 79.969 C 355.442 80.015,355.719 79.368,355.511 76.447 C 355.399 74.888,355.128 73.384,354.908 73.106 C 354.687 72.828,354.317 72.060,354.085 71.400 L 353.663 70.200 353.632 71.369 M123.733 79.500 C 165.935 79.556,234.875 79.556,276.933 79.500 C 318.990 79.444,284.460 79.398,200.200 79.398 C 115.940 79.398,81.530 79.444,123.733 79.500 M24.200 99.589 C 21.793 99.869,17.763 101.546,19.411 101.582 C 19.857 101.592,20.618 101.323,21.102 100.983 C 23.004 99.652,28.928 99.606,200.000 99.611 C 370.756 99.616,375.786 99.654,377.786 100.947 C 378.234 101.237,379.126 101.603,379.768 101.762 C 380.411 101.920,381.380 102.398,381.922 102.825 C 382.464 103.251,383.122 103.600,383.384 103.600 C 383.646 103.600,384.283 104.050,384.800 104.600 C 385.317 105.150,385.933 105.608,386.170 105.618 C 386.406 105.627,387.590 106.893,388.800 108.429 C 390.010 109.966,391.274 111.537,391.610 111.921 C 391.945 112.305,392.447 113.380,392.726 114.310 C 393.004 115.239,393.405 116.000,393.616 116.000 C 393.827 116.000,394.014 116.315,394.032 116.700 C 394.049 117.085,394.148 117.192,394.252 116.937 C 394.357 116.683,394.072 115.786,393.621 114.943 C 393.169 114.101,392.800 113.283,392.800 113.126 C 392.800 111.684,386.299 104.616,383.651 103.179 C 382.853 102.746,381.930 102.234,381.600 102.041 C 379.874 101.033,376.708 99.962,374.400 99.607 C 371.417 99.147,28.146 99.130,24.200 99.589 M16.996 102.006 C 16.859 102.229,16.028 102.778,15.151 103.225 C 13.269 104.185,8.251 109.143,7.340 110.942 C 6.990 111.634,6.477 112.470,6.199 112.800 C 5.922 113.130,5.567 113.850,5.410 114.400 C 5.254 114.950,4.738 116.210,4.263 117.200 L 3.400 119.000 3.400 222.600 L 3.400 326.200 4.500 328.688 C 5.105 330.056,5.600 331.423,5.600 331.726 C 5.600 332.028,5.960 332.602,6.400 333.000 C 6.840 333.398,7.200 333.927,7.200 334.175 C 7.200 337.007,16.182 343.594,22.506 345.399 L 26.012 346.400 78.706 346.391 C 130.386 346.382,131.419 346.367,132.400 345.600 C 132.950 345.170,133.555 344.814,133.744 344.809 C 134.226 344.796,137.899 341.718,139.705 339.812 C 141.101 338.340,143.522 333.927,144.212 331.600 C 144.374 331.050,144.754 330.245,145.054 329.811 C 145.851 328.659,145.721 328.256,144.823 329.093 C 144.395 329.492,143.868 330.605,143.652 331.567 C 143.436 332.529,143.086 333.425,142.874 333.558 C 142.662 333.691,142.254 334.584,141.968 335.542 C 141.682 336.500,141.213 337.374,140.924 337.484 C 140.636 337.595,140.400 337.877,140.400 338.112 C 140.400 338.643,136.179 342.800,135.640 342.800 C 135.423 342.800,135.002 343.147,134.705 343.572 C 134.407 343.996,133.685 344.464,133.099 344.611 C 132.512 344.758,131.823 345.131,131.567 345.439 C 130.882 346.265,26.919 346.281,25.280 345.456 C 24.686 345.157,23.249 344.804,22.086 344.673 C 20.923 344.542,19.455 344.067,18.824 343.617 C 18.193 343.168,17.417 342.800,17.100 342.800 C 16.783 342.800,16.202 342.445,15.809 342.010 C 15.416 341.576,14.718 341.101,14.259 340.955 C 12.249 340.317,6.342 333.042,5.762 330.490 C 5.626 329.890,5.129 328.590,4.657 327.600 L 3.800 325.800 3.691 225.400 C 3.581 124.655,3.648 119.009,4.980 117.107 C 5.321 116.620,5.600 115.847,5.600 115.389 C 5.600 114.930,6.050 113.945,6.600 113.200 C 7.150 112.455,7.600 111.612,7.600 111.328 C 7.600 110.677,14.705 103.600,15.359 103.600 C 15.626 103.600,16.455 103.150,17.200 102.600 C 18.067 101.960,18.320 101.600,17.901 101.600 C 17.542 101.600,17.134 101.783,16.996 102.006 M394.700 120.200 C 395.081 123.753,395.098 319.355,394.718 324.200 L 394.436 327.800 395.118 325.200 C 396.186 321.127,396.169 123.467,395.100 119.800 L 394.400 117.400 394.700 120.200 M103.200 179.473 C 102.430 179.577,101.530 179.895,101.200 180.178 C 100.870 180.462,99.528 180.814,98.217 180.960 C 96.906 181.107,95.533 181.498,95.166 181.830 C 94.799 182.162,93.857 182.538,93.073 182.666 C 92.288 182.793,91.307 183.213,90.893 183.600 C 90.478 183.986,89.702 184.435,89.169 184.598 C 88.636 184.761,87.884 185.172,87.497 185.512 C 87.111 185.851,86.461 186.325,86.054 186.564 C 82.179 188.845,74.400 196.201,74.400 197.585 C 74.400 197.759,74.120 198.135,73.777 198.419 C 73.434 198.704,72.903 199.536,72.597 200.268 C 72.291 201.001,71.852 201.600,71.620 201.600 C 71.389 201.600,71.200 201.843,71.200 202.140 C 71.200 202.438,70.780 203.473,70.267 204.440 C 69.753 205.408,69.199 206.740,69.035 207.400 C 68.872 208.060,68.480 208.886,68.166 209.235 C 67.852 209.584,67.436 211.133,67.242 212.677 C 67.048 214.222,66.646 215.917,66.348 216.443 C 65.476 217.985,65.598 228.531,66.512 230.600 L 67.219 232.200 66.994 230.400 C 66.073 223.009,66.697 214.393,68.437 210.489 C 68.857 209.548,69.200 208.576,69.200 208.329 C 69.200 207.920,70.825 204.250,71.649 202.800 C 71.836 202.470,72.288 201.660,72.653 201.000 C 73.998 198.565,77.598 194.126,80.063 191.863 C 83.852 188.385,83.833 188.400,84.311 188.400 C 84.555 188.400,84.991 188.085,85.281 187.700 C 85.570 187.315,86.345 186.696,87.003 186.324 C 89.525 184.899,93.905 182.800,94.356 182.800 C 94.616 182.800,95.227 182.540,95.714 182.223 C 96.201 181.905,97.680 181.470,99.000 181.256 C 100.320 181.042,101.940 180.651,102.600 180.388 C 104.338 179.693,112.568 179.420,115.200 179.969 C 121.494 181.283,123.882 181.874,124.674 182.314 C 126.096 183.105,126.702 182.862,125.419 182.016 C 124.769 181.588,123.239 181.116,122.019 180.968 C 120.798 180.819,119.260 180.416,118.600 180.071 C 117.389 179.439,106.558 179.018,103.200 179.473 M283.200 179.547 C 282.430 179.715,281.440 180.043,281.000 180.276 C 280.560 180.509,279.165 180.825,277.900 180.979 C 276.635 181.132,275.347 181.510,275.039 181.818 C 274.731 182.126,273.701 182.553,272.751 182.767 C 271.800 182.980,270.817 183.435,270.567 183.777 C 270.317 184.120,269.826 184.400,269.477 184.400 C 269.127 184.400,268.356 184.850,267.762 185.400 C 267.169 185.950,266.466 186.400,266.200 186.400 C 265.769 186.400,265.128 186.874,262.700 188.990 C 262.315 189.325,261.859 189.600,261.686 189.600 C 261.224 189.600,257.602 193.441,255.463 196.200 C 254.439 197.520,253.346 198.871,253.033 199.203 C 252.720 199.535,252.343 200.287,252.196 200.874 C 252.049 201.461,251.584 202.252,251.164 202.633 C 250.744 203.013,250.403 203.701,250.406 204.162 C 250.412 205.062,250.748 204.627,252.073 202.000 C 254.479 197.228,262.404 188.857,266.801 186.441 C 272.557 183.278,275.439 182.075,279.400 181.178 C 281.160 180.780,283.320 180.266,284.200 180.036 C 287.160 179.264,294.771 179.576,298.400 180.618 C 299.355 180.892,299.369 180.872,298.712 180.178 C 297.956 179.381,286.169 178.902,283.200 179.547 M301.600 181.359 C 304.460 182.085,308.667 183.707,309.279 184.319 C 309.544 184.584,310.056 184.800,310.418 184.800 C 310.780 184.800,311.402 185.160,311.800 185.600 C 312.198 186.040,312.748 186.400,313.022 186.400 C 314.449 186.400,325.600 196.898,325.600 198.242 C 325.600 198.512,325.772 198.793,325.983 198.867 C 326.648 199.098,329.702 204.926,331.189 208.800 C 334.739 218.047,333.940 236.213,329.765 241.200 C 329.488 241.530,329.141 242.288,328.992 242.884 C 328.843 243.480,328.469 244.177,328.161 244.433 C 327.852 244.689,327.600 245.117,327.600 245.385 C 327.600 245.909,326.557 247.389,323.385 251.367 C 320.015 255.594,314.342 260.051,309.400 262.354 C 307.860 263.072,306.150 263.893,305.600 264.178 C 305.050 264.463,303.880 264.825,303.000 264.981 C 302.120 265.138,300.860 265.512,300.200 265.812 C 299.540 266.113,298.460 266.431,297.800 266.519 C 296.955 266.633,297.147 266.698,298.451 266.740 C 299.642 266.779,300.474 266.593,300.784 266.220 C 301.049 265.900,302.106 265.519,303.133 265.372 C 304.160 265.226,305.561 264.767,306.247 264.353 C 306.933 263.939,307.843 263.600,308.270 263.600 C 308.696 263.600,309.655 263.150,310.400 262.600 C 311.145 262.050,311.892 261.600,312.060 261.600 C 312.392 261.600,314.100 260.474,316.602 258.607 C 317.481 257.950,319.708 255.885,321.552 254.017 C 324.477 251.053,325.690 249.566,327.405 246.843 C 327.628 246.489,328.101 245.750,328.457 245.200 C 328.813 244.650,329.221 243.700,329.363 243.090 C 329.504 242.479,329.976 241.624,330.410 241.190 C 330.845 240.755,331.200 239.963,331.200 239.429 C 331.200 238.894,331.448 238.209,331.751 237.906 C 332.054 237.604,332.516 236.016,332.777 234.378 C 333.039 232.740,333.511 230.721,333.826 229.892 C 334.621 227.802,334.622 218.235,333.828 216.713 C 333.516 216.115,333.140 214.585,332.993 213.313 C 332.845 212.041,332.404 210.363,332.012 209.584 C 331.621 208.805,331.176 207.603,331.025 206.912 C 330.873 206.221,330.502 205.450,330.200 205.200 C 329.898 204.950,329.530 204.172,329.383 203.472 C 329.235 202.773,328.794 201.840,328.403 201.400 C 328.012 200.960,327.569 200.195,327.419 199.700 C 327.269 199.205,326.983 198.800,326.783 198.800 C 326.584 198.800,326.153 198.282,325.826 197.649 C 324.909 195.877,319.355 190.158,317.185 188.752 C 316.118 188.060,315.151 187.248,315.035 186.947 C 314.920 186.646,314.584 186.400,314.290 186.400 C 313.996 186.400,313.145 185.950,312.400 185.400 C 311.655 184.850,310.810 184.400,310.522 184.400 C 310.235 184.400,309.640 184.040,309.200 183.600 C 308.760 183.160,308.016 182.800,307.547 182.800 C 307.078 182.800,306.121 182.445,305.419 182.012 C 304.708 181.572,303.096 181.130,301.772 181.012 L 299.400 180.800 301.600 181.359 M128.928 183.994 C 130.208 184.617,131.558 185.386,131.928 185.703 C 132.298 186.019,132.933 186.397,133.340 186.542 C 136.210 187.564,145.796 197.322,147.347 200.800 C 148.086 202.459,149.600 204.553,149.600 203.917 C 149.600 203.590,149.240 202.907,148.800 202.400 C 148.360 201.893,148.000 201.249,148.000 200.969 C 148.000 200.690,147.550 199.927,147.000 199.273 C 146.450 198.619,146.000 197.946,146.000 197.776 C 146.000 197.017,137.642 188.675,136.300 188.093 C 135.695 187.831,135.200 187.436,135.200 187.214 C 135.200 186.992,134.615 186.529,133.900 186.184 C 132.162 185.346,130.416 184.345,129.211 183.497 C 128.667 183.113,127.857 182.814,127.411 182.831 C 126.915 182.849,127.505 183.302,128.928 183.994 M149.600 205.162 C 149.600 205.421,149.943 206.120,150.363 206.716 C 150.782 207.312,151.247 208.514,151.397 209.386 C 151.546 210.259,151.900 211.429,152.183 211.986 C 153.807 215.189,153.761 231.047,152.116 234.904 C 151.763 235.731,151.591 236.524,151.732 236.665 C 152.503 237.436,153.996 229.585,154.141 224.000 C 154.214 221.178,153.128 212.566,152.553 211.400 C 152.227 210.740,151.783 209.410,151.566 208.445 C 151.197 206.801,149.600 204.134,149.600 205.162 M249.553 206.143 C 249.196 206.620,248.771 207.639,248.608 208.406 C 248.445 209.173,248.055 210.091,247.742 210.446 C 245.797 212.657,245.839 233.833,247.793 235.993 C 248.127 236.361,248.400 237.027,248.400 237.472 C 248.400 238.582,249.205 240.800,249.607 240.800 C 249.788 240.800,250.063 241.378,250.218 242.084 C 250.374 242.791,250.810 243.826,251.188 244.384 C 253.199 247.358,254.000 248.682,254.000 249.036 C 254.000 249.868,262.704 258.400,263.552 258.400 C 264.019 258.400,264.400 258.648,264.400 258.951 C 264.400 259.255,264.927 259.721,265.571 259.988 C 266.215 260.255,266.833 260.710,266.944 260.999 C 267.055 261.288,267.679 261.642,268.331 261.785 C 268.984 261.928,269.834 262.395,270.221 262.823 C 270.607 263.250,271.391 263.598,271.962 263.596 C 272.754 263.594,272.384 263.293,270.400 262.326 C 268.074 261.193,266.687 260.291,264.800 258.685 C 264.470 258.404,263.440 257.664,262.511 257.040 C 260.254 255.525,255.986 250.893,253.812 247.600 C 251.947 244.775,249.355 239.438,248.824 237.330 C 248.558 236.274,248.167 235.201,247.955 234.945 C 245.507 231.996,247.061 210.141,249.968 206.638 C 250.247 206.302,250.414 205.858,250.338 205.650 C 250.262 205.443,249.909 205.665,249.553 206.143 M67.454 234.587 C 67.591 236.041,67.977 237.353,68.440 237.941 C 69.360 239.111,69.438 238.420,68.574 236.750 C 68.230 236.084,67.786 234.788,67.589 233.869 C 67.279 232.431,67.260 232.530,67.454 234.587 M151.200 237.846 C 151.200 238.201,150.869 239.146,150.465 239.946 C 148.095 244.639,146.986 246.659,146.522 247.129 C 146.235 247.419,146.000 247.820,146.000 248.018 C 146.000 248.843,140.143 255.177,137.509 257.200 C 137.080 257.530,136.223 258.205,135.606 258.700 C 134.989 259.195,134.356 259.600,134.200 259.600 C 134.044 259.600,133.381 260.050,132.727 260.600 C 132.073 261.150,131.304 261.600,131.018 261.600 C 130.732 261.600,130.298 261.841,130.054 262.135 C 129.809 262.430,128.844 262.900,127.908 263.180 C 126.972 263.461,125.850 263.940,125.414 264.245 C 124.979 264.550,124.235 264.800,123.761 264.800 C 123.288 264.800,122.113 265.094,121.150 265.454 C 120.188 265.813,118.680 266.241,117.800 266.404 L 116.200 266.700 118.169 266.750 C 119.364 266.780,120.385 266.578,120.769 266.235 C 121.116 265.924,122.443 265.479,123.718 265.245 C 124.994 265.012,126.311 264.546,126.647 264.210 C 126.983 263.875,127.659 263.600,128.151 263.600 C 128.642 263.600,129.655 263.150,130.400 262.600 C 131.145 262.050,131.919 261.600,132.120 261.600 C 132.474 261.600,134.344 260.214,135.634 258.998 C 135.982 258.669,136.432 258.400,136.634 258.400 C 136.964 258.399,137.482 258.011,139.866 255.973 C 141.219 254.817,145.796 249.539,146.200 248.668 C 146.420 248.194,146.910 247.495,147.290 247.113 C 147.669 246.732,148.094 245.966,148.233 245.410 C 148.373 244.855,148.633 244.400,148.812 244.400 C 148.991 244.400,149.355 243.725,149.620 242.900 C 149.884 242.075,150.356 241.107,150.668 240.750 C 151.258 240.072,151.893 237.200,151.452 237.200 C 151.314 237.200,151.200 237.490,151.200 237.846 M69.206 239.871 C 69.203 240.351,69.465 241.007,69.788 241.331 C 70.111 241.654,70.645 242.700,70.974 243.655 C 71.303 244.610,71.758 245.453,71.986 245.529 C 72.214 245.605,72.400 245.877,72.400 246.135 C 72.400 247.605,80.408 256.614,83.161 258.240 C 83.842 258.643,84.400 259.092,84.400 259.238 C 84.400 259.384,84.940 259.727,85.600 260.000 C 86.260 260.273,86.800 260.628,86.800 260.789 C 86.800 261.060,89.292 262.349,93.600 264.305 C 94.590 264.755,96.155 265.245,97.077 265.393 C 97.999 265.541,98.966 265.918,99.226 266.231 C 99.538 266.607,100.395 266.777,101.749 266.733 C 103.572 266.673,103.627 266.648,102.244 266.505 C 101.388 266.417,100.308 266.105,99.844 265.812 C 99.380 265.518,98.370 265.161,97.600 265.018 C 95.098 264.552,87.665 261.242,86.812 260.214 C 86.531 259.876,86.054 259.600,85.751 259.600 C 85.448 259.600,85.200 259.450,85.200 259.266 C 85.200 259.083,84.229 258.264,83.042 257.447 C 78.547 254.351,74.302 249.100,71.003 242.555 C 69.968 240.500,69.209 239.368,69.206 239.871 M195.400 246.400 C 194.442 246.571,196.288 246.686,200.000 246.684 C 204.605 246.683,205.583 246.606,203.800 246.385 C 200.832 246.016,197.509 246.022,195.400 246.400 M189.900 247.265 C 189.295 247.486,188.800 247.812,188.800 247.989 C 188.800 248.166,188.125 248.437,187.300 248.591 C 186.475 248.745,185.478 249.215,185.084 249.635 C 184.691 250.056,184.087 250.400,183.742 250.400 C 183.397 250.400,182.550 250.849,181.858 251.398 C 181.166 251.947,180.080 252.802,179.445 253.298 C 178.809 253.794,177.729 254.812,177.045 255.559 C 176.360 256.307,175.428 257.297,174.974 257.759 C 173.693 259.062,170.400 264.186,170.400 264.875 C 170.400 265.215,170.032 265.960,169.583 266.531 C 169.116 267.124,168.662 268.476,168.522 269.685 C 168.388 270.848,167.946 272.229,167.539 272.754 C 167.133 273.279,166.815 274.269,166.834 274.954 C 166.868 276.154,166.880 276.163,167.188 275.200 C 167.364 274.650,167.797 273.660,168.151 273.000 C 168.505 272.340,168.796 271.280,168.798 270.644 C 168.799 270.008,169.154 268.748,169.586 267.844 C 170.018 266.940,170.644 265.570,170.978 264.800 C 172.709 260.802,178.165 254.382,181.800 252.066 C 185.345 249.807,188.086 248.550,192.000 247.388 C 193.797 246.855,193.797 246.854,192.400 246.859 C 191.630 246.861,190.505 247.044,189.900 247.265 M208.000 247.355 C 212.288 248.697,213.074 249.007,214.393 249.879 C 215.159 250.385,215.916 250.800,216.075 250.800 C 220.011 250.800,230.053 263.920,231.230 270.600 C 231.423 271.700,231.946 273.313,232.391 274.185 C 232.836 275.056,233.200 276.069,233.200 276.436 C 233.200 276.802,233.451 277.310,233.758 277.565 C 234.065 277.820,234.425 278.610,234.559 279.322 C 234.692 280.033,235.161 281.286,235.601 282.106 C 236.040 282.926,236.402 283.823,236.405 284.099 C 236.414 284.935,238.335 288.653,238.368 287.899 C 238.386 287.513,238.040 286.525,237.600 285.704 C 237.160 284.884,236.800 283.832,236.800 283.367 C 236.800 282.903,236.440 282.107,236.000 281.600 C 235.560 281.093,235.200 280.165,235.200 279.539 C 235.200 278.912,234.843 278.043,234.406 277.606 C 233.969 277.169,233.495 276.044,233.352 275.106 C 233.210 274.168,232.817 273.082,232.479 272.694 C 232.141 272.305,231.728 270.984,231.562 269.758 C 231.395 268.532,230.978 267.218,230.634 266.838 C 230.291 266.458,229.897 265.584,229.759 264.894 C 229.621 264.205,229.169 263.334,228.754 262.958 C 228.339 262.583,228.000 262.050,228.000 261.774 C 228.000 260.690,222.596 254.691,219.600 252.448 C 218.830 251.872,217.962 251.175,217.671 250.900 C 217.381 250.625,216.824 250.400,216.433 250.400 C 216.043 250.400,215.407 250.050,215.021 249.623 C 214.634 249.195,213.751 248.725,213.059 248.578 C 212.366 248.431,211.487 248.035,211.104 247.697 C 210.721 247.360,209.461 247.018,208.304 246.938 L 206.200 246.792 208.000 247.355 M273.877 264.359 C 274.359 264.761,275.619 265.211,276.677 265.359 C 277.735 265.506,278.949 265.890,279.376 266.213 C 279.826 266.553,280.920 266.779,281.976 266.750 L 283.800 266.700 282.200 266.389 C 281.320 266.218,279.880 265.799,279.000 265.457 C 278.120 265.115,276.939 264.827,276.376 264.818 C 275.814 264.808,275.004 264.536,274.576 264.213 C 273.452 263.362,272.837 263.491,273.877 264.359 M106.900 267.097 C 108.605 267.172,111.395 267.172,113.100 267.097 C 114.805 267.022,113.410 266.961,110.000 266.961 C 106.590 266.961,105.195 267.022,106.900 267.097 M286.900 267.097 C 288.605 267.172,291.395 267.172,293.100 267.097 C 294.805 267.022,293.410 266.961,290.000 266.961 C 286.590 266.961,285.195 267.022,286.900 267.097 M197.510 271.023 C 197.355 271.179,196.186 271.534,194.914 271.812 C 192.987 272.233,192.830 272.325,193.976 272.359 C 194.733 272.382,196.380 272.188,197.636 271.928 C 199.431 271.558,200.506 271.567,202.660 271.971 C 206.302 272.656,208.330 272.371,205.000 271.642 C 202.007 270.988,197.886 270.647,197.510 271.023 M190.000 273.460 C 187.440 274.918,184.110 277.729,182.804 279.531 C 181.394 281.477,179.600 284.830,179.600 285.518 C 179.600 285.806,179.150 286.705,178.600 287.514 C 178.050 288.323,177.600 289.293,177.600 289.669 C 177.600 290.045,177.428 290.459,177.217 290.589 C 177.006 290.720,176.533 291.900,176.164 293.213 C 175.796 294.526,175.353 295.600,175.180 295.600 C 175.008 295.600,174.670 296.517,174.429 297.638 C 174.189 298.759,173.724 300.059,173.396 300.527 C 172.512 301.790,172.647 302.702,173.549 301.554 C 173.961 301.029,174.434 299.790,174.600 298.800 C 174.766 297.810,175.239 296.571,175.651 296.046 C 176.063 295.521,176.400 294.709,176.400 294.240 C 176.400 293.772,176.760 292.716,177.200 291.896 C 177.640 291.075,178.000 290.070,178.000 289.663 C 178.000 289.257,178.341 288.615,178.759 288.237 C 179.176 287.860,179.712 286.777,179.950 285.831 C 180.189 284.886,180.657 283.885,180.992 283.607 C 181.326 283.329,181.600 282.838,181.600 282.514 C 181.600 280.764,187.311 275.198,190.451 273.887 C 191.249 273.554,192.025 273.083,192.175 272.841 C 192.595 272.160,191.966 272.339,190.000 273.460 M208.400 273.200 C 208.907 273.640,209.520 274.000,209.762 274.000 C 211.442 274.000,217.200 279.533,218.604 282.497 C 218.944 283.214,219.484 284.250,219.805 284.800 C 220.126 285.350,220.391 286.186,220.394 286.657 C 220.397 287.129,220.661 287.614,220.979 287.737 C 221.298 287.859,221.762 288.717,222.012 289.643 C 222.261 290.570,222.699 291.704,222.984 292.164 C 223.269 292.624,223.613 293.600,223.748 294.332 C 223.883 295.065,224.355 296.125,224.796 296.686 C 225.691 297.823,225.856 297.614,225.121 296.274 C 224.683 295.476,223.120 291.337,222.524 289.400 C 222.389 288.960,221.969 288.150,221.592 287.600 C 221.214 287.050,220.774 286.150,220.614 285.600 C 219.313 281.130,214.560 275.770,209.688 273.276 C 207.562 272.189,207.210 272.168,208.400 273.200 M165.931 277.261 C 165.571 277.705,165.154 278.728,165.004 279.534 C 164.855 280.341,164.505 281.270,164.227 281.600 C 163.949 281.930,163.492 283.052,163.211 284.092 C 162.930 285.133,162.453 286.190,162.150 286.441 C 161.848 286.692,161.598 287.281,161.596 287.749 C 161.594 288.217,161.150 289.500,160.609 290.600 C 160.068 291.700,159.618 292.870,159.610 293.200 C 159.602 293.530,159.237 294.340,158.800 295.000 C 158.363 295.660,158.003 296.560,158.000 297.000 C 157.997 297.440,157.637 298.340,157.200 299.000 C 156.763 299.660,156.404 300.488,156.403 300.840 C 156.401 301.193,155.950 302.327,155.400 303.362 C 154.850 304.396,154.415 305.638,154.434 306.121 C 154.464 306.891,154.509 306.866,154.792 305.928 C 154.970 305.338,155.405 304.443,155.758 303.939 C 156.111 303.434,156.406 302.747,156.413 302.411 C 156.419 302.075,156.868 300.900,157.409 299.800 C 157.950 298.700,158.394 297.525,158.396 297.189 C 158.398 296.853,158.644 296.223,158.943 295.789 C 159.242 295.355,159.715 294.280,159.995 293.400 C 160.275 292.520,160.644 291.620,160.815 291.400 C 160.986 291.180,161.481 290.010,161.914 288.800 C 162.347 287.590,163.106 285.610,163.600 284.400 C 164.094 283.190,164.799 281.390,165.167 280.400 C 165.534 279.410,166.067 278.180,166.350 277.666 C 167.015 276.458,166.773 276.224,165.931 277.261 M238.425 289.411 C 238.411 289.857,238.654 290.584,238.964 291.027 C 239.274 291.470,240.182 293.535,240.982 295.616 C 242.401 299.308,242.733 300.100,244.244 303.400 C 244.647 304.280,245.099 305.360,245.249 305.800 C 245.480 306.482,245.526 306.441,245.560 305.529 C 245.582 304.939,245.346 304.203,245.035 303.892 C 244.724 303.582,244.243 302.534,243.966 301.564 C 243.689 300.594,243.238 299.530,242.965 299.200 C 242.691 298.870,242.341 297.916,242.186 297.080 C 242.031 296.245,241.653 295.310,241.346 295.004 C 241.040 294.697,240.677 293.851,240.540 293.123 C 240.402 292.395,240.054 291.526,239.766 291.192 C 239.478 290.857,239.064 290.137,238.846 289.592 C 238.502 288.729,238.447 288.706,238.425 289.411 M225.600 299.153 C 225.600 299.677,225.941 300.667,226.358 301.353 C 226.774 302.039,227.239 303.355,227.389 304.277 C 227.539 305.199,227.907 306.157,228.206 306.405 C 228.504 306.652,228.870 307.428,229.017 308.128 C 229.165 308.827,229.603 309.940,229.991 310.600 C 230.378 311.260,230.811 312.418,230.952 313.174 C 231.094 313.929,231.461 314.829,231.768 315.174 C 232.075 315.518,232.387 316.250,232.463 316.800 L 232.600 317.800 200.218 317.800 L 167.836 317.800 167.595 316.800 C 167.363 315.834,167.347 315.829,167.124 316.666 C 166.997 317.143,167.088 317.728,167.326 317.966 C 168.018 318.658,232.161 318.570,232.737 317.876 C 233.208 317.309,232.550 314.400,231.951 314.400 C 231.778 314.400,231.516 313.725,231.369 312.900 C 231.222 312.075,230.769 310.770,230.361 310.000 C 229.642 308.643,228.980 306.942,227.716 303.200 C 226.658 300.070,225.601 298.047,225.600 299.153 M172.140 304.066 C 170.907 307.638,170.316 309.119,169.590 310.454 C 169.156 311.254,168.800 312.249,168.800 312.665 C 168.800 313.082,168.512 313.834,168.159 314.337 C 167.807 314.840,167.612 315.346,167.727 315.461 C 168.085 315.818,169.097 313.873,169.373 312.300 C 169.518 311.475,169.801 310.800,170.003 310.800 C 170.204 310.800,170.567 310.064,170.810 309.164 C 171.052 308.265,171.612 306.833,172.055 305.984 C 172.498 305.134,172.802 304.055,172.730 303.586 C 172.622 302.879,172.521 302.961,172.140 304.066 M245.609 307.246 C 245.614 307.551,245.970 308.250,246.400 308.800 C 246.830 309.350,247.186 310.142,247.191 310.560 C 247.196 310.978,247.630 312.238,248.156 313.360 C 250.187 317.694,250.800 319.099,250.800 319.418 C 250.800 319.599,251.142 320.479,251.560 321.374 C 251.977 322.268,252.806 324.170,253.400 325.600 C 253.995 327.030,254.804 328.920,255.199 329.800 C 255.594 330.680,256.048 331.837,256.208 332.370 C 256.608 333.705,258.377 337.102,258.390 336.560 C 258.409 335.755,257.527 333.600,257.179 333.600 C 256.990 333.600,256.721 332.925,256.581 332.100 C 256.440 331.275,256.005 330.143,255.613 329.584 C 255.221 329.026,254.768 327.946,254.606 327.184 C 254.444 326.423,254.078 325.530,253.793 325.200 C 253.508 324.870,253.073 323.843,252.826 322.917 C 252.580 321.991,252.208 321.129,252.000 321.000 C 251.792 320.871,251.420 320.009,251.174 319.083 C 250.927 318.157,250.492 317.130,250.207 316.800 C 249.922 316.470,249.559 315.570,249.400 314.800 C 249.241 314.030,248.845 313.098,248.519 312.729 C 248.194 312.359,247.758 311.300,247.549 310.373 C 247.176 308.713,245.591 306.159,245.609 307.246 M153.515 307.898 C 153.177 308.284,152.784 309.257,152.640 310.060 C 152.496 310.863,152.132 311.724,151.831 311.974 C 151.530 312.224,151.160 313.097,151.008 313.914 C 150.857 314.731,150.407 315.940,150.010 316.600 C 149.612 317.260,149.162 318.387,149.010 319.104 C 148.859 319.821,148.468 320.675,148.143 321.000 C 147.817 321.326,147.472 322.269,147.375 323.096 C 147.223 324.398,147.248 324.456,147.558 323.528 C 147.755 322.938,148.205 322.043,148.558 321.539 C 148.911 321.034,149.200 320.346,149.200 320.008 C 149.200 319.670,149.650 318.548,150.200 317.515 C 150.750 316.482,151.201 315.403,151.202 315.118 C 151.204 314.833,151.454 314.122,151.759 313.539 C 152.063 312.955,152.539 311.785,152.817 310.939 C 153.094 310.092,153.588 308.989,153.915 308.488 C 154.646 307.364,154.355 306.936,153.515 307.898 M146.264 325.529 C 145.899 325.933,145.600 326.692,145.600 327.216 C 145.600 328.017,145.727 327.921,146.394 326.612 C 147.292 324.851,147.243 324.447,146.264 325.529 M393.300 329.940 C 392.805 331.026,392.400 332.113,392.400 332.357 C 392.400 332.601,392.249 332.800,392.064 332.800 C 391.880 332.800,391.503 333.295,391.228 333.900 C 390.659 335.150,390.546 335.286,387.211 338.700 C 385.869 340.075,384.547 341.200,384.274 341.200 C 384.001 341.200,383.470 341.560,383.093 342.000 C 382.716 342.440,382.070 342.800,381.658 342.800 C 381.245 342.800,380.461 343.152,379.914 343.582 C 379.368 344.011,377.859 344.536,376.560 344.748 C 375.262 344.960,373.693 345.328,373.074 345.566 C 371.553 346.152,268.800 346.182,268.800 345.597 C 268.800 345.375,268.094 344.911,267.231 344.566 C 266.368 344.220,265.563 343.682,265.443 343.369 C 265.323 343.056,265.015 342.800,264.758 342.800 C 264.502 342.800,263.880 342.395,263.376 341.900 C 262.873 341.405,261.949 340.535,261.323 339.966 C 260.698 339.398,259.894 338.498,259.537 337.966 C 259.180 337.435,258.771 337.112,258.629 337.248 C 258.155 337.703,262.959 342.296,266.069 344.362 L 269.139 346.400 321.155 346.400 C 365.087 346.400,373.438 346.311,374.886 345.830 C 375.829 345.517,377.410 345.049,378.400 344.789 C 379.390 344.530,380.290 344.201,380.400 344.059 C 380.510 343.916,381.230 343.476,382.000 343.080 C 382.770 342.684,383.850 342.110,384.400 341.805 C 385.572 341.155,390.729 335.938,391.453 334.671 C 393.154 331.693,394.415 328.980,394.315 328.511 C 394.252 328.212,393.795 328.855,393.300 329.940 " stroke="none" fill="#6dc2a2" fill-rule="evenodd"></path></g></svg>